<svg width="137" height="192" viewBox="0 0 137 192" fill="none" xmlns="http://www.w3.org/2000/svg">
<path d="M127.263 30.1849C127.263 31.5318 126.787 32.6409 125.756 33.5124C124.805 34.4631 123.616 34.8592 122.347 34.8592L107.837 34.6216L90.7111 57.9139C90.4733 58.2308 90.1561 58.5477 89.7597 58.7061C89.3632 58.8646 88.9668 59.023 88.4911 59.023H87.3018C86.3503 59.023 85.5574 58.5477 85.0817 57.7554C84.606 56.9632 84.5267 56.0917 84.8438 55.2202L93.7241 34.3839L79.6901 34.067L73.6643 42.3857C73.4264 42.7026 73.1885 42.861 72.8714 43.0987C72.5542 43.2571 72.2371 43.3364 71.8406 43.3364H70.6513C69.9377 43.3364 69.3827 43.0195 68.907 42.3857C68.4313 41.8311 68.352 41.1973 68.5898 40.4843L72.3164 29.155L69.0656 17.7465C68.8277 17.0335 69.0656 16.3997 69.462 15.8451C69.9377 15.2905 70.4927 15.0529 71.2063 15.0529H72.3957C72.7128 15.0529 73.03 15.2113 73.3471 15.3698C73.6643 15.5282 73.9021 15.7659 74.0607 16.0828L79.7694 24.5599L93.8033 24.8768L85.716 3.64438C85.3988 2.7729 85.4781 1.98064 86.0332 1.18838C86.5882 0.396128 87.3018 0 88.3325 0H89.5218C89.9975 0 90.394 0.158446 90.7904 0.316897C91.1869 0.554574 91.4247 0.792256 91.6626 1.18838L107.837 25.1145L122.347 25.4314C123.695 25.4314 124.805 25.9068 125.677 26.9367C126.628 27.8874 127.025 29.0758 127.025 30.3434L127.263 30.1849Z" fill="#00BFF2"/>
<path d="M122.506 181.504C122.188 181.425 122.03 181.108 122.109 180.791C122.188 180.474 122.506 180.316 122.823 180.395C123.14 180.474 123.298 180.791 123.219 181.108C123.14 181.425 122.823 181.584 122.506 181.504Z" fill="#00BFF2"/>
<path d="M108.155 187.684C107.838 187.605 107.6 187.209 107.758 186.892C107.917 186.575 108.234 186.337 108.551 186.496C108.869 186.654 109.106 186.971 108.948 187.288C108.789 187.605 108.472 187.843 108.155 187.684Z" fill="#00BFF2"/>
<path d="M93.0898 191.012C93.5276 191.012 93.8826 190.658 93.8826 190.22C93.8826 189.782 93.5276 189.428 93.0898 189.428C92.6519 189.428 92.2969 189.782 92.2969 190.22C92.2969 190.658 92.6519 191.012 93.0898 191.012Z" fill="#00BFF2"/>
<path d="M78.4635 190.543C78.611 190.039 78.3217 189.511 77.8174 189.364C77.313 189.216 76.7846 189.505 76.6372 190.009C76.4897 190.513 76.7789 191.041 77.2833 191.189C77.7876 191.336 78.3161 191.047 78.4635 190.543Z" fill="#00BFF2"/>
<path d="M62.0089 188.24C61.2953 188.082 60.9781 187.369 61.1367 186.656C61.2953 185.943 62.0089 185.626 62.7225 185.784C63.436 185.943 63.7532 186.656 63.5946 187.369C63.436 188.082 62.7225 188.399 62.0089 188.24Z" fill="#00BFF2"/>
<path d="M47.9756 182.535C48.8952 182.535 49.6406 181.791 49.6406 180.872C49.6406 179.953 48.8952 179.208 47.9756 179.208C47.056 179.208 46.3105 179.953 46.3105 180.872C46.3105 181.791 47.056 182.535 47.9756 182.535Z" fill="#00BFF2"/>
<path d="M37.0124 172.648C37.332 171.556 36.7052 170.412 35.6124 170.093C34.5196 169.773 33.3747 170.4 33.0552 171.492C32.7356 172.584 33.3624 173.728 34.4552 174.047C35.548 174.366 36.6929 173.74 37.0124 172.648Z" fill="#00BFF2"/>
<path d="M26.5054 161.474C26.8987 160.13 26.1272 158.722 24.7823 158.329C23.4373 157.936 22.0282 158.707 21.635 160.051C21.2417 161.395 22.0131 162.803 23.3581 163.196C24.703 163.589 26.1121 162.818 26.5054 161.474Z" fill="#00BFF2"/>
<path d="M17.9621 149.176C18.8468 147.717 18.3798 145.817 16.919 144.933C15.4582 144.049 13.5568 144.516 12.6722 145.975C11.7875 147.435 12.2545 149.335 13.7153 150.219C15.1761 151.103 17.0774 150.636 17.9621 149.176Z" fill="#00BFF2"/>
<path d="M9.36189 136.188C11.3324 136.188 12.9298 134.592 12.9298 132.623C12.9298 130.654 11.3324 129.058 9.36189 129.058C7.39137 129.058 5.79395 130.654 5.79395 132.623C5.79395 134.592 7.39137 136.188 9.36189 136.188Z" fill="#00BFF2"/>
<path d="M9.40491 119.564C10.8043 117.825 10.5278 115.282 8.78732 113.883C7.04686 112.485 4.50151 112.761 3.10214 114.5C1.70278 116.24 1.97929 118.783 3.71975 120.181C5.46022 121.579 8.00554 121.303 9.40491 119.564Z" fill="#00BFF2"/>
<path d="M9.24169 104.224C11.064 102.585 11.2112 99.7792 9.57032 97.9583C7.92948 96.1374 5.122 95.9904 3.29965 97.6299C1.47731 99.2695 1.33017 102.075 2.97102 103.896C4.61187 105.717 7.41935 105.864 9.24169 104.224Z" fill="#00BFF2"/>
<path d="M9.28285 90.1587C11.954 90.1587 14.1194 87.995 14.1194 85.3259C14.1194 82.6568 11.954 80.4932 9.28285 80.4932C6.61169 80.4932 4.44629 82.6568 4.44629 85.3259C4.44629 87.995 6.61169 90.1587 9.28285 90.1587Z" fill="#00BFF2"/>
<path d="M20.155 72.1804C20.9539 69.4507 19.3868 66.5907 16.6549 65.7924C13.923 64.9942 11.0608 66.56 10.2619 69.2897C9.46304 72.0195 11.0301 74.8795 13.762 75.6778C16.4939 76.476 19.3561 74.9102 20.155 72.1804Z" fill="#00BFF2"/>
<path d="M23.7129 62.8255C26.6905 62.8255 29.1044 60.4135 29.1044 57.4381C29.1044 54.4628 26.6905 52.0508 23.7129 52.0508C20.7352 52.0508 18.3213 54.4628 18.3213 57.4381C18.3213 60.4135 20.7352 62.8255 23.7129 62.8255Z" fill="#00BFF2"/>
<path d="M39.8421 47.8012C40.6901 44.9035 39.0266 41.8675 36.1266 41.0201C33.2266 40.1727 30.1882 41.8349 29.3402 44.7326C28.4922 47.6304 30.1556 50.6664 33.0556 51.5138C35.9557 52.3611 38.9941 50.699 39.8421 47.8012Z" fill="#00BFF2"/>
<path d="M51.8386 40.9356C53.7593 38.5486 53.3798 35.0577 50.9909 33.1385C48.602 31.2193 45.1084 31.5986 43.1877 33.9856C41.267 36.3726 41.6465 39.8634 44.0354 41.7826C46.4243 43.7018 49.9179 43.3226 51.8386 40.9356Z" fill="#00BFF2"/>
<path d="M61.8507 36.7603C64.8722 36.7603 67.3216 34.3128 67.3216 31.2937C67.3216 28.2746 64.8722 25.8271 61.8507 25.8271C58.8293 25.8271 56.3799 28.2746 56.3799 31.2937C56.3799 34.3128 58.8293 36.7603 61.8507 36.7603Z" fill="#00BFF2"/>
<path d="M135.35 172.791C135.033 172.711 134.875 172.315 134.954 171.998C135.033 171.681 135.43 171.523 135.747 171.602C136.064 171.681 136.222 172.078 136.143 172.394C136.064 172.711 135.667 172.87 135.35 172.791Z" fill="#00BFF2"/>
</svg>
