<svg width="38" height="38" viewBox="0 0 38 38" fill="none" xmlns="http://www.w3.org/2000/svg">
<path d="M23.0799 14.6063V20.6371C23.0799 20.7897 22.9612 20.9085 22.8085 20.9085H21.8415C21.7482 20.9085 21.6634 20.8576 21.621 20.7982L18.8558 17.0661V20.6455C18.8558 20.7982 18.7371 20.917 18.5844 20.917H17.6174C17.4647 20.917 17.346 20.7982 17.346 20.6455V14.6147C17.346 14.4621 17.4647 14.3433 17.6174 14.3433H18.5759C18.6607 14.3433 18.754 14.3857 18.7964 14.4621L21.5616 18.1942V14.6147C21.5616 14.4621 21.6804 14.3433 21.833 14.3433H22.8C22.9527 14.3348 23.0799 14.4621 23.0799 14.6063ZM16.1246 14.3348H15.1576C15.0049 14.3348 14.8862 14.4536 14.8862 14.6063V20.6371C14.8862 20.7897 15.0049 20.9085 15.1576 20.9085H16.1246C16.2772 20.9085 16.396 20.7897 16.396 20.6371V14.6063C16.396 14.4621 16.2772 14.3348 16.1246 14.3348ZM13.792 19.3902H11.154V14.6063C11.154 14.4536 11.0353 14.3348 10.8826 14.3348H9.91563C9.76296 14.3348 9.64421 14.4536 9.64421 14.6063V20.6371C9.64421 20.7134 9.66965 20.7728 9.72054 20.8237C9.77144 20.8661 9.83081 20.9 9.90715 20.9H13.7835C13.9362 20.9 14.0549 20.7812 14.0549 20.6286V19.6616C14.0549 19.5174 13.9362 19.3902 13.792 19.3902ZM28.1692 14.3348H24.2929C24.1487 14.3348 24.0214 14.4536 24.0214 14.6063V20.6371C24.0214 20.7812 24.1402 20.9085 24.2929 20.9085H28.1692C28.3219 20.9085 28.4406 20.7897 28.4406 20.6371V19.6701C28.4406 19.5174 28.3219 19.3987 28.1692 19.3987H25.5312V18.3808H28.1692C28.3219 18.3808 28.4406 18.2621 28.4406 18.1094V17.1339C28.4406 16.9813 28.3219 16.8625 28.1692 16.8625H25.5312V15.8446H28.1692C28.3219 15.8446 28.4406 15.7259 28.4406 15.5732V14.6063C28.4321 14.4621 28.3134 14.3348 28.1692 14.3348ZM38 6.92992V31.1295C37.9915 34.9295 34.8786 38.0085 31.0701 38H6.87055C3.07055 37.9915 -0.00846465 34.8701 1.74831e-05 31.0701V6.87055C0.00849962 3.07055 3.12993 -0.00846465 6.92992 1.74831e-05H31.1295C34.9295 0.00849962 38.0085 3.12144 38 6.92992ZM32.775 17.329C32.775 11.1371 26.5661 6.09867 18.9406 6.09867C11.3152 6.09867 5.10626 11.1371 5.10626 17.329C5.10626 22.8763 10.0259 27.5245 16.6759 28.4067C18.296 28.7545 18.1094 29.3482 17.7446 31.5281C17.6853 31.8759 17.4647 32.8937 18.9406 32.2745C20.4165 31.6553 26.9053 27.5839 29.8147 24.242C31.8165 22.0366 32.775 19.8058 32.775 17.329Z" fill="#F7F7F8"/>
</svg>
