<svg width="36" height="36" viewBox="0 0 36 36" fill="none" xmlns="http://www.w3.org/2000/svg">
<path d="M15.7285 16.7777C11.8172 16.961 8.64939 19.0593 8.64939 21.6669C8.64939 24.2745 11.8172 26.2403 15.7285 26.057C19.6399 25.8737 22.8179 23.4291 22.8179 20.8113C22.8179 18.2139 19.6501 16.5944 15.7285 16.7777ZM18.3972 23.3578C17.1953 24.906 14.8322 25.6598 12.52 24.4171C11.4301 23.8161 11.4709 22.6447 11.4709 22.6447C11.4709 22.6447 11.0125 18.9575 14.9544 18.4991C18.8963 18.0407 19.5992 21.8095 18.3972 23.3578ZM15.7591 20.8826C15.5045 21.0659 15.4535 21.4123 15.5961 21.6363C15.7285 21.8604 16.0341 21.8808 16.2786 21.6975C16.523 21.5039 16.6147 21.1678 16.4823 20.9437C16.3499 20.7298 16.0545 20.6687 15.7591 20.8826ZM13.8951 21.3919C13.1617 21.4632 12.632 22.1049 12.632 22.7262C12.632 23.3374 13.2228 23.7652 13.9562 23.6735C14.6896 23.592 15.2804 23.0216 15.2804 22.4105C15.2905 21.7993 14.7405 21.3104 13.8951 21.3919ZM27.921 3.75H8.08917C5.69549 3.75 3.75 5.6955 3.75 8.08917V27.9108C3.75 30.3045 5.69549 32.25 8.08917 32.25H27.9108C30.3045 32.25 32.25 30.3045 32.25 27.9108V8.08917C32.2601 5.6955 30.3147 3.75 27.921 3.75ZM26.3116 22.5531C24.7023 25.9755 19.3751 27.646 15.4332 27.3404C11.6848 27.045 6.86687 25.8024 6.36776 21.2697C6.36776 21.2697 6.10293 19.2121 8.09935 16.5638C8.09935 16.5638 10.9616 12.5608 14.2923 11.4199C17.6333 10.2893 18.0204 12.2043 18.0204 13.3451C17.8472 14.3127 17.5111 14.8729 18.7639 14.4859C18.7639 14.4859 22.0438 12.9682 23.3985 14.3127C24.4884 15.4026 23.5818 16.8999 23.5818 16.8999C23.5818 16.8999 23.1336 17.399 24.0606 17.5824C24.9976 17.7657 27.9312 19.1204 26.3116 22.5531ZM23.0827 13.0802C22.7262 13.0802 22.441 12.795 22.441 12.4385C22.441 12.082 22.7262 11.7866 23.0827 11.7866C23.0827 11.7866 27.1061 11.0431 26.6274 15.3619C26.6274 15.3822 26.6274 15.4026 26.6172 15.4332C26.5765 15.7387 26.3014 15.973 25.9857 15.973C25.6292 15.973 25.3338 15.6878 25.3338 15.3313C25.3338 15.3313 25.9653 12.4487 23.0827 13.0802ZM29.8767 16.5434C29.7646 17.2768 29.3979 17.3379 28.9701 17.3379C28.4506 17.3379 28.033 17.012 28.033 16.4925C28.033 16.0443 28.2164 15.586 28.2164 15.586C28.2673 15.3924 28.7053 14.2211 27.9312 12.4691C26.5051 10.0652 23.6226 10.0347 23.2762 10.1671C22.9299 10.2995 22.4308 10.3708 22.4308 10.3708C21.9113 10.3708 21.4937 9.943 21.4937 9.4337C21.4937 9.0059 21.7789 8.63921 22.1762 8.52716C22.1762 8.52716 22.1864 8.51698 22.1965 8.50679C22.2271 8.4966 22.2577 8.47623 22.2882 8.46605C22.6855 8.38456 24.1217 8.10954 25.5069 8.43549C28.0025 9.01608 31.4147 11.4199 29.8767 16.5434Z" fill="white"/>
</svg>
