<svg width="36" height="36" viewBox="0 0 36 36" fill="none" xmlns="http://www.w3.org/2000/svg">
<g clip-path="url(#clip0_13899_76555)">
<path d="M12.4088 4.59442C10.9724 4.66219 9.99149 4.89142 9.13397 5.22838C8.24648 5.57425 7.49426 6.03838 6.74582 6.78952C5.99738 7.54066 5.53649 8.29342 5.19305 9.18226C4.86068 10.0417 4.6355 11.0234 4.57205 12.4606C4.5086 13.8978 4.49456 14.3598 4.50158 18.0258C4.5086 21.6919 4.5248 22.1514 4.59446 23.5916C4.66304 25.0277 4.89146 26.0084 5.22842 26.8662C5.57483 27.7537 6.03842 28.5056 6.78983 29.2543C7.54124 30.003 8.29346 30.4628 9.18446 30.8068C10.0431 31.1387 11.0251 31.3649 12.462 31.4278C13.8989 31.4907 14.3614 31.5053 18.0264 31.4983C21.6914 31.4913 22.1528 31.4751 23.5927 31.4068C25.0327 31.3385 26.0082 31.1084 26.8662 30.7731C27.7537 30.4259 28.5062 29.9631 29.2544 29.2114C30.0025 28.4597 30.4632 27.7064 30.8063 26.817C31.139 25.9584 31.365 24.9764 31.4273 23.5406C31.4902 22.0996 31.5051 21.6395 31.4981 17.974C31.4911 14.3085 31.4746 13.8489 31.4063 12.4093C31.338 10.9697 31.1093 9.99199 30.7726 9.13366C30.4256 8.24617 29.9626 7.49476 29.2114 6.74551C28.4603 5.99626 27.7065 5.53591 26.8174 5.19355C25.9582 4.86118 24.9768 4.63465 23.5398 4.57255C22.1029 4.51045 21.6404 4.49452 17.974 4.50154C14.3077 4.50856 13.8487 4.52422 12.4088 4.59442ZM12.5665 28.9992C11.2502 28.9419 10.5355 28.7232 10.0593 28.5402C9.42854 28.2972 8.97926 28.0034 8.5046 27.5333C8.02994 27.0633 7.73834 26.6124 7.4921 25.983C7.30715 25.5067 7.0844 24.7928 7.02284 23.4766C6.95588 22.054 6.94184 21.6268 6.93401 18.0226C6.92618 14.4184 6.93995 13.9918 7.00232 12.5686C7.05848 11.2534 7.27853 10.5379 7.46132 10.0619C7.70432 9.43039 7.997 8.98192 8.46815 8.50753C8.9393 8.03314 9.38885 7.741 10.0188 7.49476C10.4945 7.309 11.2084 7.08814 12.5241 7.0255C13.9478 6.958 14.3744 6.9445 17.9781 6.93667C21.5818 6.92884 22.0095 6.94234 23.4337 7.00498C24.7489 7.06222 25.4647 7.28011 25.9401 7.46398C26.5711 7.70698 27.0201 7.99885 27.4945 8.47081C27.9689 8.94277 28.2613 9.3907 28.5076 10.022C28.6936 10.4963 28.9144 11.21 28.9765 12.5265C29.0443 13.9502 29.0597 14.3771 29.0662 17.9805C29.0727 21.5839 29.06 22.0118 28.9976 23.4345C28.9401 24.7507 28.7219 25.4657 28.5386 25.9425C28.2956 26.573 28.0027 27.0225 27.5312 27.4966C27.0598 27.9707 26.6108 28.2629 25.9806 28.5091C25.5054 28.6946 24.7907 28.916 23.4761 28.9787C22.0524 29.0456 21.6258 29.0597 18.0208 29.0675C14.4157 29.0753 13.9905 29.0607 12.5668 28.9992M23.572 10.7847C23.5725 11.1051 23.668 11.4182 23.8465 11.6843C24.025 11.9504 24.2784 12.1577 24.5746 12.2798C24.8709 12.4019 25.1967 12.4334 25.5108 12.3703C25.825 12.3072 26.1134 12.1524 26.3396 11.9254C26.5657 11.6984 26.7195 11.4095 26.7814 11.0951C26.8433 10.7807 26.8106 10.455 26.6874 10.1592C26.5643 9.86339 26.3561 9.61076 26.0893 9.43326C25.8226 9.25576 25.5091 9.16137 25.1887 9.16201C24.7592 9.16286 24.3475 9.33429 24.0443 9.63859C23.7412 9.94289 23.5712 10.3551 23.572 10.7847ZM11.0683 18.0134C11.0758 21.842 14.1851 24.9386 18.0129 24.9314C21.8407 24.9241 24.9395 21.815 24.9322 17.9864C24.9249 14.1578 21.8148 11.0604 17.9865 11.0679C14.1581 11.0755 11.061 14.1854 11.0683 18.0134ZM13.4999 18.0086C13.4981 17.1185 13.7603 16.248 14.2533 15.5069C14.7463 14.7659 15.448 14.1878 16.2696 13.8455C17.0912 13.5033 17.9959 13.4124 18.8691 13.5843C19.7424 13.7562 20.5451 14.1832 21.1757 14.8113C21.8063 15.4394 22.2365 16.2404 22.4118 17.113C22.5872 17.9856 22.4999 18.8906 22.1609 19.7135C21.8219 20.5365 21.2465 21.2404 20.5075 21.7364C19.7684 22.2323 18.8989 22.498 18.0089 22.4997C17.4179 22.501 16.8325 22.3858 16.286 22.1607C15.7395 21.9357 15.2428 21.6052 14.8241 21.1882C14.4053 20.7711 14.0729 20.2756 13.8457 19.7301C13.6185 19.1845 13.501 18.5995 13.4999 18.0086Z" fill="url(#paint0_linear_13899_76555)"/>
</g>
<defs>
<linearGradient id="paint0_linear_13899_76555" x1="28" y1="4" x2="6" y2="32" gradientUnits="userSpaceOnUse">
<stop stop-color="#5425D5"/>
<stop offset="0.283654" stop-color="#C302A7"/>
<stop offset="0.449462" stop-color="#F01564"/>
<stop offset="0.723015" stop-color="#FF6C2C"/>
<stop offset="1" stop-color="#FDB251"/>
</linearGradient>
<clipPath id="clip0_13899_76555">
<rect width="27" height="27" fill="white" transform="translate(4.49994 4.5)"/>
</clipPath>
</defs>
</svg>
