<svg width="36" height="36" viewBox="0 0 36 36" fill="none" xmlns="http://www.w3.org/2000/svg">
<path d="M27.3223 4C30.1701 4.00006 32.4999 6.32985 32.5 9.17773V27.3232C32.5 30.1437 30.2145 32.4552 27.4053 32.5H9.09473C6.28444 32.4552 4.00003 30.1427 4 27.3232V9.17773C4.00006 6.32985 6.32985 4.00006 9.17773 4H27.3223ZM18.5186 15.2705C18.4956 15.2707 18.4775 15.29 18.4775 15.3135V16.8535C18.4777 16.8937 18.5089 16.9267 18.5479 16.9268L19.415 16.9277C19.4549 16.9278 19.4746 16.9491 19.4746 16.9902V21.79C19.4746 21.8362 19.4504 21.8594 19.4043 21.8594L18.0977 21.8574C18.0778 21.8566 18.0577 21.8614 18.041 21.8721C18.0244 21.8828 18.012 21.8988 18.0049 21.917L17.2891 23.499H22.627V23.5L22.6289 21.918C22.6289 21.8787 22.6094 21.8594 22.5713 21.8594L21.1865 21.8564C21.1424 21.8564 21.1191 21.8333 21.1191 21.7871V16.9902C21.1191 16.949 21.1396 16.9277 21.1797 16.9277H22.0537C22.0974 16.9276 22.1191 16.9052 22.1191 16.8613L22.1172 15.3379C22.1172 15.2929 22.0965 15.2707 22.0527 15.2705H18.5186ZM9.62207 14.6152C9.6129 14.6154 9.60314 14.6174 9.59473 14.6211C9.58656 14.6248 9.57944 14.6302 9.57324 14.6367C9.56689 14.6434 9.56189 14.6515 9.55859 14.6602C9.55539 14.6686 9.55351 14.6775 9.55371 14.6865L9.53223 21.8838C9.53275 21.9088 9.52754 21.9337 9.51855 21.957C9.50955 21.9804 9.49666 22.0024 9.47949 22.0205C9.46238 22.0385 9.44156 22.0524 9.41895 22.0625C9.39623 22.0726 9.37148 22.0786 9.34668 22.0791L8.54004 22.0811C8.53328 22.0812 8.52634 22.0825 8.52051 22.0859C8.51473 22.0894 8.51024 22.0948 8.50684 22.1006C8.50308 22.1067 8.50052 22.1139 8.5 22.1211C8.4995 22.1282 8.50112 22.1351 8.50391 22.1416L9.0752 23.499H9.6582C10.6616 23.531 11.1043 22.8711 11.1084 21.9053C11.1143 19.5513 11.1143 17.1557 11.1084 14.7188C11.1073 14.6499 11.0749 14.6152 11.0098 14.6152H9.62207ZM14.7402 21.7402C14.6942 21.7284 14.6616 21.7449 14.6416 21.7891L13.9629 23.3125C13.9451 23.3506 13.9564 23.3769 13.9951 23.3916L14.2705 23.499H16.4336V23.498L17.1387 21.9258C17.1587 21.8825 17.1457 21.8604 17.0986 21.8594C16.3402 21.8564 15.4816 21.9376 14.7402 21.7402ZM24.2129 14.5L24.2031 15.0615C24.2031 15.1044 24.183 15.1249 24.1436 15.125H23.2246C23.1803 15.1251 23.1602 15.1475 23.1602 15.1924L23.1631 16.7217C23.1631 16.7706 23.1862 16.7958 23.2324 16.7959L24.1191 16.792C24.1418 16.7928 24.1641 16.8027 24.1797 16.8193C24.195 16.8359 24.2036 16.8581 24.2031 16.8809V18.1973C24.2032 18.2164 24.1954 18.2349 24.1826 18.249C24.1763 18.2558 24.1686 18.2609 24.1602 18.2646C24.1518 18.2684 24.1429 18.2704 24.1338 18.2705L22.6973 18.2676C22.6499 18.2676 22.626 18.2939 22.626 18.3447L22.624 19.8672C22.6241 19.8853 22.6311 19.903 22.6436 19.916C22.6561 19.9289 22.6735 19.936 22.6914 19.9365H24.1445C24.1526 19.9367 24.1606 19.9391 24.168 19.9424C24.1753 19.9456 24.1819 19.9502 24.1875 19.9561C24.193 19.9619 24.1973 19.969 24.2002 19.9766C24.2031 19.9843 24.2053 19.9928 24.2051 20.001L24.21 23.499H25.7646L25.7705 20.0156C25.7706 19.9728 25.7906 19.9512 25.8301 19.9512C26.9502 19.9392 27.7109 19.9392 28.1123 19.9492C28.4669 19.9594 28.6426 20.1525 28.6426 20.5293C28.6406 20.9482 28.6435 21.3672 28.6494 21.7871C28.6504 21.8585 28.6241 21.9271 28.5762 21.9795C28.5287 22.0315 28.4637 22.0615 28.3945 22.0615L27.1523 22.0625C27.1455 22.0626 27.1388 22.065 27.1328 22.0684C27.1266 22.0719 27.121 22.0769 27.1172 22.083C27.1134 22.0892 27.1109 22.0962 27.1104 22.1035C27.1098 22.1108 27.1113 22.1183 27.1143 22.125L27.6992 23.499H28.8447C29.4318 23.433 29.839 23.1669 30.0664 22.7031C30.1742 22.4791 30.2276 22.1275 30.2246 21.6475C30.2188 20.2715 30.5809 18.5208 28.7451 18.2979C28.6424 18.2849 28.5363 18.2746 28.4277 18.2646C28.3906 18.2605 28.3722 18.2389 28.373 18.1992C28.3889 17.5212 28.4468 16.6569 28.1631 16.0889C27.6865 15.131 26.7564 15.1009 25.833 15.1289C25.7906 15.1299 25.7687 15.1091 25.7686 15.0645V14.5H24.2129ZM6.70215 16.9277C6.66707 16.9277 6.64851 16.947 6.64551 16.9834C6.57637 18.1526 6.4881 19.321 6.37988 20.4902C6.36302 20.6026 6.31866 20.7094 6.25 20.8008V20.8682L7.03906 22.6602C7.06107 22.7089 7.09007 22.713 7.12402 22.6729C7.65614 22.039 7.91032 20.9931 7.98047 20.2119C8.07742 19.1361 8.16542 18.0596 8.24414 16.9824C8.24514 16.9687 8.24046 16.9542 8.23145 16.9443C8.22148 16.9336 8.20826 16.9278 8.19531 16.9277H6.70215ZM12.0273 16.918C11.9873 16.918 11.9677 16.9392 11.9697 16.9805C12.0298 17.8913 12.0995 18.8002 12.1797 19.709C12.2839 20.8792 12.4641 21.6476 12.9951 22.5889C13.0743 22.7274 13.1458 22.7245 13.2109 22.5771L13.9326 20.9297C13.9401 20.9135 13.9432 20.8957 13.9434 20.8779C13.9435 20.8602 13.9407 20.8424 13.9336 20.8262C13.8615 20.6474 13.814 20.4224 13.793 20.1514C13.7108 19.0981 13.6318 18.0416 13.5566 16.9824C13.5536 16.9412 13.5303 16.9189 13.4893 16.9189L12.0273 16.918ZM15.9736 14.5312C15.9402 14.5314 15.9161 14.5482 15.9023 14.5811C15.5633 15.398 15.2191 16.2125 14.8672 17.0234C14.7436 17.3084 14.5399 17.7149 14.6299 18.0068C14.7781 18.4956 15.4562 18.3899 15.832 18.3828C15.8379 18.3828 15.8435 18.3848 15.8486 18.3877C15.8538 18.3907 15.8583 18.3952 15.8613 18.4004C15.8643 18.4053 15.8667 18.4112 15.8672 18.417C15.8676 18.4226 15.8663 18.4283 15.8643 18.4336L15.124 20.1816C14.9144 20.6746 15.0471 21.1527 15.5869 21.1777C15.9132 21.1927 16.4855 21.1926 17.3037 21.1826C17.3253 21.183 17.3465 21.1764 17.3643 21.1641C17.3818 21.1518 17.3951 21.1345 17.4023 21.1143L17.9238 19.874C17.9426 19.828 17.9273 19.8047 17.8809 19.8037L17.0752 19.7988C16.9923 19.7978 16.9435 19.7539 16.9307 19.667C16.9247 19.627 16.941 19.5635 16.9775 19.4785C17.3433 18.6236 17.7104 17.7624 18.0781 16.8955C18.0848 16.8806 18.083 16.8644 18.0752 16.8506C18.0663 16.8377 18.0519 16.8301 18.0361 16.8301H16.7627C16.739 16.8298 16.7159 16.8233 16.6953 16.8115C16.6746 16.7996 16.657 16.7823 16.6445 16.7617C16.6189 16.7178 16.614 16.6651 16.6338 16.6182L17.4932 14.585C17.4954 14.5791 17.4968 14.5727 17.4961 14.5664C17.4954 14.5602 17.4927 14.5541 17.4893 14.5488C17.4833 14.538 17.4727 14.5312 17.46 14.5312H15.9736ZM26.6904 16.8105C26.7743 16.8107 26.8438 16.8895 26.8438 16.9854L26.8486 18.208C26.8489 18.2243 26.8421 18.2401 26.8311 18.252C26.8202 18.2638 26.8057 18.2705 26.79 18.2705L25.8242 18.2734C25.7936 18.2734 25.7666 18.2469 25.7666 18.2129L25.7617 16.9902C25.7609 16.9445 25.7772 16.9 25.8066 16.8652C25.82 16.8492 25.8367 16.8361 25.8555 16.8271C25.8741 16.8183 25.8944 16.8128 25.915 16.8125L26.6904 16.8105ZM29.6465 16.8799C30.8408 16.5584 30.0727 14.6849 28.9824 15.4199V15.4209C28.5671 15.7002 28.6561 16.3842 28.6621 16.8262C28.6623 16.8652 28.6808 16.8857 28.7188 16.8896C29.1424 16.9358 29.4521 16.9329 29.6465 16.8799Z" fill="#FF2442"/>
</svg>
