<svg width="36" height="36" viewBox="0 0 36 36" fill="none" xmlns="http://www.w3.org/2000/svg">
<path d="M18 3C26.2843 3 33 9.71575 33 18C32.9998 25.6688 27.2443 31.9925 19.8174 32.8896V22.585H23.875L24.7168 18.001V18H19.8174V16.3789C19.8174 15.8059 19.8706 15.3159 19.9844 14.9023C20.3517 13.5686 21.3497 13.0265 23.2266 13.0264C23.9905 13.0264 24.6059 13.0448 24.96 13.082V8.9248C24.2891 8.73846 22.6494 8.55273 21.6992 8.55273C17.7568 8.55274 15.4871 10.0167 14.6973 13.126C14.6711 13.2291 14.645 13.3337 14.6221 13.4404L14.5469 13.8301C14.4325 14.4956 14.376 15.2266 14.376 16.0244V18H11.2832V22.585H14.376V32.5576C7.84287 30.9366 3.00022 25.0343 3 18C3 9.71575 9.71574 3 18 3Z" fill="#3B579D"/>
</svg>
