<svg width="36" height="36" viewBox="0 0 36 36" fill="none" xmlns="http://www.w3.org/2000/svg">
<path d="M10.5 12.75C10.5 13.5804 11.0022 14.25 11.625 14.25C12.2478 14.25 12.75 13.5804 12.75 12.75C12.75 11.9196 12.2478 11.25 11.625 11.25C11.0022 11.25 10.5 11.9196 10.5 12.75Z" fill="white"/>
<path d="M19.5 19.125C19.5 19.745 19.8366 20.25 20.25 20.25C20.6634 20.25 21 19.745 21 19.125C21 18.505 20.6634 18 20.25 18C19.8324 18.0064 19.5 18.505 19.5 19.125Z" fill="white"/>
<path d="M16.5 12.75C16.5 13.5804 17.0022 14.25 17.625 14.25C18.2478 14.25 18.75 13.5804 18.75 12.75C18.75 11.9196 18.2478 11.25 17.625 11.25C17.0022 11.25 16.5 11.9196 16.5 12.75Z" fill="white"/>
<path d="M32.1643 7.91707C32.1643 5.58715 30.2468 3.75 27.9972 3.75H7.91707C5.5818 3.75 3.75 5.6675 3.75 7.91707V28.0829C3.75 30.4128 5.6675 32.25 7.91707 32.25H28.0829C30.4128 32.25 32.25 30.3325 32.25 28.0829L32.1643 7.91707ZM14.4301 22.7536C13.3536 22.7536 12.4859 22.534 11.4039 22.3197L8.38841 23.8355L9.25075 21.2378C7.08687 19.7274 5.79604 17.7777 5.79604 15.405C5.79604 11.2968 9.6846 8.05633 14.4355 8.05633C18.6829 8.05633 22.4054 10.6433 23.1553 14.1248C22.8821 14.0981 22.6036 14.0766 22.3251 14.0766C18.2223 14.0766 14.9818 17.135 14.9818 20.9111C14.9818 21.5377 15.0782 22.143 15.2496 22.7214C14.9711 22.7429 14.7033 22.7536 14.4301 22.7536ZM27.1724 25.7798L27.8205 27.9383L25.4531 26.6421C24.5907 26.8564 23.723 27.076 22.8607 27.076C18.7525 27.076 15.5121 24.2694 15.5121 20.8093C15.5121 17.3546 18.7472 14.5426 22.8607 14.5426C26.7439 14.5426 30.1986 17.3599 30.1986 20.8093C30.1986 22.7536 28.9078 24.4782 27.1724 25.7798Z" fill="white"/>
<path d="M24.75 19.125C24.75 19.745 25.0866 20.25 25.5 20.25C25.9134 20.25 26.25 19.745 26.25 19.125C26.25 18.505 25.9134 18 25.5 18C25.0866 18.0064 24.75 18.505 24.75 19.125Z" fill="white"/>
</svg>
