<svg width="36" height="36" viewBox="0 0 36 36" fill="none" xmlns="http://www.w3.org/2000/svg">
<path d="M27.0723 3.75C29.9201 3.75006 32.2499 6.07985 32.25 8.92773V27.0732C32.25 29.8937 29.9645 32.2052 27.1553 32.25H8.84473C6.03444 32.2052 3.75003 29.8927 3.75 27.0732V8.92773C3.75006 6.07985 6.07985 3.75006 8.92773 3.75H27.0723ZM18.2686 15.0205C18.2456 15.0207 18.2275 15.04 18.2275 15.0635V16.6035C18.2277 16.6437 18.2589 16.6767 18.2979 16.6768L19.165 16.6777C19.2049 16.6778 19.2246 16.6991 19.2246 16.7402V21.54C19.2246 21.5862 19.2004 21.6094 19.1543 21.6094L17.8477 21.6074C17.8278 21.6066 17.8077 21.6114 17.791 21.6221C17.7744 21.6328 17.762 21.6488 17.7549 21.667L17.0391 23.249H22.377V23.25L22.3789 21.668C22.3789 21.6287 22.3594 21.6094 22.3213 21.6094L20.9365 21.6064C20.8924 21.6064 20.8691 21.5833 20.8691 21.5371V16.7402C20.8691 16.699 20.8896 16.6777 20.9297 16.6777H21.8037C21.8474 16.6776 21.8691 16.6552 21.8691 16.6113L21.8672 15.0879C21.8672 15.0429 21.8465 15.0207 21.8027 15.0205H18.2686ZM9.37207 14.3652C9.3629 14.3654 9.35314 14.3674 9.34473 14.3711C9.33656 14.3748 9.32944 14.3802 9.32324 14.3867C9.31689 14.3934 9.31189 14.4015 9.30859 14.4102C9.30539 14.4186 9.30351 14.4275 9.30371 14.4365L9.28223 21.6338C9.28275 21.6588 9.27754 21.6837 9.26855 21.707C9.25955 21.7304 9.24666 21.7524 9.22949 21.7705C9.21238 21.7885 9.19156 21.8024 9.16895 21.8125C9.14623 21.8226 9.12148 21.8286 9.09668 21.8291L8.29004 21.8311C8.28328 21.8312 8.27634 21.8325 8.27051 21.8359C8.26473 21.8394 8.26024 21.8448 8.25684 21.8506C8.25308 21.8567 8.25052 21.8639 8.25 21.8711C8.2495 21.8782 8.25112 21.8851 8.25391 21.8916L8.8252 23.249H9.4082C10.4116 23.281 10.8543 22.6211 10.8584 21.6553C10.8643 19.3013 10.8643 16.9057 10.8584 14.4688C10.8573 14.3999 10.8249 14.3652 10.7598 14.3652H9.37207ZM14.4902 21.4902C14.4442 21.4784 14.4116 21.4949 14.3916 21.5391L13.7129 23.0625C13.6951 23.1006 13.7064 23.1269 13.7451 23.1416L14.0205 23.249H16.1836V23.248L16.8887 21.6758C16.9087 21.6325 16.8957 21.6104 16.8486 21.6094C16.0902 21.6064 15.2316 21.6876 14.4902 21.4902ZM23.9629 14.25L23.9531 14.8115C23.9531 14.8544 23.933 14.8749 23.8936 14.875H22.9746C22.9303 14.8751 22.9102 14.8975 22.9102 14.9424L22.9131 16.4717C22.9131 16.5206 22.9362 16.5458 22.9824 16.5459L23.8691 16.542C23.8918 16.5428 23.9141 16.5527 23.9297 16.5693C23.945 16.5859 23.9536 16.6081 23.9531 16.6309V17.9473C23.9532 17.9664 23.9454 17.9849 23.9326 17.999C23.9263 18.0058 23.9186 18.0109 23.9102 18.0146C23.9018 18.0184 23.8929 18.0204 23.8838 18.0205L22.4473 18.0176C22.3999 18.0176 22.376 18.0439 22.376 18.0947L22.374 19.6172C22.3741 19.6353 22.3811 19.653 22.3936 19.666C22.4061 19.6789 22.4235 19.686 22.4414 19.6865H23.8945C23.9026 19.6867 23.9106 19.6891 23.918 19.6924C23.9253 19.6956 23.9319 19.7002 23.9375 19.7061C23.943 19.7119 23.9473 19.719 23.9502 19.7266C23.9531 19.7343 23.9553 19.7428 23.9551 19.751L23.96 23.249H25.5146L25.5205 19.7656C25.5206 19.7228 25.5406 19.7012 25.5801 19.7012C26.7002 19.6892 27.4609 19.6892 27.8623 19.6992C28.2169 19.7094 28.3926 19.9025 28.3926 20.2793C28.3906 20.6982 28.3935 21.1172 28.3994 21.5371C28.4004 21.6085 28.3741 21.6771 28.3262 21.7295C28.2787 21.7815 28.2137 21.8115 28.1445 21.8115L26.9023 21.8125C26.8955 21.8126 26.8888 21.815 26.8828 21.8184C26.8766 21.8219 26.871 21.8269 26.8672 21.833C26.8634 21.8392 26.8609 21.8462 26.8604 21.8535C26.8598 21.8608 26.8613 21.8683 26.8643 21.875L27.4492 23.249H28.5947C29.1818 23.183 29.589 22.9169 29.8164 22.4531C29.9242 22.2291 29.9776 21.8775 29.9746 21.3975C29.9688 20.0215 30.3309 18.2708 28.4951 18.0479C28.3924 18.0349 28.2863 18.0246 28.1777 18.0146C28.1406 18.0105 28.1222 17.9889 28.123 17.9492C28.1389 17.2712 28.1968 16.4069 27.9131 15.8389C27.4365 14.881 26.5064 14.8509 25.583 14.8789C25.5406 14.8799 25.5187 14.8591 25.5186 14.8145V14.25H23.9629ZM6.45215 16.6777C6.41707 16.6777 6.39851 16.697 6.39551 16.7334C6.32637 17.9026 6.2381 19.071 6.12988 20.2402C6.11302 20.3526 6.06866 20.4594 6 20.5508V20.6182L6.78906 22.4102C6.81107 22.4589 6.84007 22.463 6.87402 22.4229C7.40614 21.789 7.66032 20.7431 7.73047 19.9619C7.82742 18.8861 7.91542 17.8096 7.99414 16.7324C7.99514 16.7187 7.99046 16.7042 7.98145 16.6943C7.97148 16.6836 7.95826 16.6778 7.94531 16.6777H6.45215ZM11.7773 16.668C11.7373 16.668 11.7177 16.6892 11.7197 16.7305C11.7798 17.6413 11.8495 18.5502 11.9297 19.459C12.0339 20.6292 12.2141 21.3976 12.7451 22.3389C12.8243 22.4774 12.8958 22.4745 12.9609 22.3271L13.6826 20.6797C13.6901 20.6635 13.6932 20.6457 13.6934 20.6279C13.6935 20.6102 13.6907 20.5924 13.6836 20.5762C13.6115 20.3974 13.564 20.1724 13.543 19.9014C13.4608 18.8481 13.3818 17.7916 13.3066 16.7324C13.3036 16.6912 13.2803 16.6689 13.2393 16.6689L11.7773 16.668ZM15.7236 14.2812C15.6902 14.2814 15.6661 14.2982 15.6523 14.3311C15.3133 15.148 14.9691 15.9625 14.6172 16.7734C14.4936 17.0584 14.2899 17.4649 14.3799 17.7568C14.5281 18.2456 15.2062 18.1399 15.582 18.1328C15.5879 18.1328 15.5935 18.1348 15.5986 18.1377C15.6038 18.1407 15.6083 18.1452 15.6113 18.1504C15.6143 18.1553 15.6167 18.1612 15.6172 18.167C15.6176 18.1726 15.6163 18.1783 15.6143 18.1836L14.874 19.9316C14.6644 20.4246 14.7971 20.9027 15.3369 20.9277C15.6632 20.9427 16.2355 20.9426 17.0537 20.9326C17.0753 20.933 17.0965 20.9264 17.1143 20.9141C17.1318 20.9018 17.1451 20.8845 17.1523 20.8643L17.6738 19.624C17.6926 19.578 17.6773 19.5547 17.6309 19.5537L16.8252 19.5488C16.7423 19.5478 16.6935 19.5039 16.6807 19.417C16.6747 19.377 16.691 19.3135 16.7275 19.2285C17.0933 18.3736 17.4604 17.5124 17.8281 16.6455C17.8348 16.6306 17.833 16.6144 17.8252 16.6006C17.8163 16.5877 17.8019 16.5801 17.7861 16.5801H16.5127C16.489 16.5798 16.4659 16.5733 16.4453 16.5615C16.4246 16.5496 16.407 16.5323 16.3945 16.5117C16.3689 16.4678 16.364 16.4151 16.3838 16.3682L17.2432 14.335C17.2454 14.3291 17.2468 14.3227 17.2461 14.3164C17.2454 14.3102 17.2427 14.3041 17.2393 14.2988C17.2333 14.288 17.2227 14.2812 17.21 14.2812H15.7236ZM26.4404 16.5605C26.5243 16.5607 26.5938 16.6395 26.5938 16.7354L26.5986 17.958C26.5989 17.9743 26.5921 17.9901 26.5811 18.002C26.5702 18.0138 26.5557 18.0205 26.54 18.0205L25.5742 18.0234C25.5436 18.0234 25.5166 17.9969 25.5166 17.9629L25.5117 16.7402C25.5109 16.6945 25.5272 16.65 25.5566 16.6152C25.57 16.5992 25.5867 16.5861 25.6055 16.5771C25.6241 16.5683 25.6444 16.5628 25.665 16.5625L26.4404 16.5605ZM29.3965 16.6299C30.5908 16.3084 29.8227 14.4349 28.7324 15.1699V15.1709C28.3171 15.4502 28.4061 16.1342 28.4121 16.5762C28.4123 16.6152 28.4308 16.6357 28.4688 16.6396C28.8924 16.6858 29.2021 16.6829 29.3965 16.6299Z" fill="white"/>
</svg>
