<svg width="36" height="36" viewBox="0 0 36 36" fill="none" xmlns="http://www.w3.org/2000/svg">
<path d="M18 3.75C15.1816 3.75 12.4265 4.58575 10.0831 6.15156C7.73973 7.71737 5.91327 9.94291 4.83472 12.5468C3.75617 15.1506 3.47398 18.0158 4.02382 20.78C4.57366 23.5443 5.93084 26.0834 7.92373 28.0763C9.91663 30.0692 12.4557 31.4263 15.22 31.9762C17.9842 32.526 20.8494 32.2438 23.4532 31.1653C26.0571 30.0867 28.2826 28.2603 29.8484 25.9169C31.4143 23.5735 32.25 20.8184 32.25 18C32.25 14.2207 30.7487 10.5961 28.0763 7.92373C25.4039 5.25134 21.7793 3.75 18 3.75ZM25.145 16.5579C24.5896 17.4483 23.7232 18.1004 22.7139 18.3876C22.4938 18.4594 22.2642 18.4978 22.0328 18.5016C21.8189 18.5003 21.6143 18.4145 21.4635 18.2628C21.3127 18.1112 21.2281 17.906 21.2281 17.6922C21.2281 17.4783 21.3127 17.2732 21.4635 17.1215C21.6143 16.9699 21.8189 16.884 22.0328 16.8828C22.0943 16.8842 22.1555 16.8725 22.2123 16.8486C22.8605 16.6875 23.4194 16.2781 23.7684 15.7086C23.9714 15.3767 24.078 14.9948 24.0762 14.6057C24.0762 13.326 22.8935 12.2715 21.4514 12.2715C20.9523 12.2725 20.4618 12.4011 20.0264 12.6448C19.6674 12.8339 19.3654 13.1152 19.1515 13.4599C18.9376 13.8046 18.8195 14.2001 18.8094 14.6057V21.4029C18.8023 22.0914 18.6109 22.7654 18.255 23.3548C17.8992 23.9443 17.3919 24.4276 16.7859 24.7545C16.1085 25.1354 15.3429 25.3319 14.5658 25.3245C12.2173 25.3245 10.2908 23.5575 10.2908 21.3715C10.2949 20.6858 10.485 20.0141 10.8408 19.4278C11.3961 18.5375 12.2626 17.8854 13.2718 17.5982C13.4922 17.5274 13.7216 17.489 13.953 17.4842C14.0597 17.4835 14.1655 17.504 14.2642 17.5444C14.363 17.5848 14.4527 17.6443 14.5284 17.7195C14.6041 17.7948 14.6641 17.8842 14.7051 17.9827C14.7461 18.0812 14.7672 18.1869 14.7672 18.2936C14.7672 18.4002 14.7461 18.5059 14.7051 18.6044C14.6641 18.7029 14.6041 18.7923 14.5284 18.8676C14.4527 18.9428 14.363 19.0023 14.2642 19.0427C14.1655 19.0831 14.0597 19.1036 13.953 19.103C13.8914 19.1015 13.8302 19.1132 13.7735 19.1372C13.1308 19.31 12.5759 19.7165 12.2174 20.2772C12.0143 20.6091 11.9077 20.991 11.9095 21.3801C11.9095 22.6597 13.0923 23.7142 14.5515 23.7142C15.0505 23.7132 15.5411 23.5847 15.9765 23.3409C16.3349 23.1515 16.6363 22.87 16.8498 22.5253C17.0632 22.1807 17.1808 21.7853 17.1906 21.3801V14.6142C17.1983 13.9252 17.3903 13.2507 17.7466 12.6609C18.103 12.071 18.6106 11.5873 19.217 11.2598C19.8822 10.8612 20.6445 10.654 21.42 10.6613C23.7684 10.6613 25.695 12.4283 25.695 14.6142C25.6908 15.3 25.5007 15.9717 25.145 16.5579V16.5579Z" fill="white"/>
</svg>
