<svg width="32" height="23" viewBox="0 0 32 23" fill="none" xmlns="http://www.w3.org/2000/svg">
<path d="M16 0.299805C16 0.299805 26.0077 0.2997 28.5049 0.96875C29.8824 1.33762 30.9652 2.42037 31.334 3.79785H31.3311C32.0001 6.29232 32 11.5 32 11.5C32 11.5367 31.9978 16.7165 31.3311 19.2021C30.9622 20.5795 29.8794 21.6615 28.502 22.0303C26.0074 22.6993 16 22.7002 16 22.7002C15.9992 22.7002 5.99252 22.6993 3.49805 22.0303C2.1206 21.6615 1.03779 20.5795 0.668945 19.2021C0.00223476 16.7165 8.37051e-06 11.5367 0 11.5C0 11.5 -0.000121191 6.29232 0.668945 3.79785C1.03772 2.42028 2.12042 1.33754 3.49805 0.96875C5.99252 0.299726 15.9992 0.299805 16 0.299805ZM12.7998 16.2988L21.1152 11.5L12.7998 6.7002V16.2988Z" fill="white"/>
</svg>
