<svg width="32" height="33" viewBox="0 0 32 33" fill="none" xmlns="http://www.w3.org/2000/svg">
<path d="M27 0.5L5 0.5C2.23858 0.5 -1.16179e-08 2.73858 -2.59493e-08 5.5L-1.40126e-07 27.5C-1.54458e-07 30.2614 2.23858 32.5 5 32.5L27 32.5C29.7614 32.5 32 30.2614 32 27.5L32 5.5C32 2.73858 29.7614 0.5 27 0.5Z" fill="white"/>
<path d="M11.6 24.5L8.2 24.5L8.2 13.8L11.6 13.8L11.6 24.5ZM9.9 12.3C8.8 12.3 8 11.5 8 10.4C8 9.3 8.9 8.5 9.9 8.5C11 8.5 11.8 9.3 11.8 10.4C11.8 11.5 11 12.3 9.9 12.3ZM24 24.5L20.6 24.5L20.6 18.7C20.6 17 19.9 16.5 18.9 16.5C17.9 16.5 16.9 17.3 16.9 18.8L16.9 24.5L13.5 24.5L13.5 13.8L16.7 13.8L16.7 15.3C17 14.6 18.2 13.5 19.9 13.5C21.8 13.5 23.8 14.6 23.8 17.9L23.8 24.5L24 24.5Z" fill="#07185C"/>
</svg>
