<svg width="36" height="36" viewBox="0 0 36 36" fill="none" xmlns="http://www.w3.org/2000/svg">
<path d="M29.7426 20.8495C28.9943 18.642 26.6956 17.8358 26.1722 17.7878C25.6489 17.7397 25.1746 17.4565 25.5217 16.871C25.869 16.2856 26.5096 14.5818 25.2774 13.3821C24.0448 12.1775 21.3497 12.6334 19.4422 13.4109C17.5398 14.1884 17.6424 13.6461 17.7011 13.1135C17.7648 12.5519 18.7918 9.41323 15.6517 9.0341C11.5385 8.53983 6.2612 13.5357 4.39772 16.4153C1.58043 20.7633 2.02568 23.7052 2.02568 23.7052H2.04524C2.38265 27.7654 8.47685 31 15.9452 31C22.3672 31 27.7765 28.6052 29.3757 25.3514C29.3757 25.3514 29.3806 25.3369 29.3951 25.3128C29.5616 24.9627 29.6888 24.6073 29.7671 24.2378C29.9919 23.3644 30.1634 22.0975 29.7426 20.8495ZM15.021 29.2242C9.70444 29.2242 5.39065 26.4214 5.39065 22.966C5.39065 19.5107 9.69958 16.7081 15.021 16.7081C20.3374 16.7081 24.6513 19.5107 24.6513 22.966C24.6513 26.4261 20.3374 29.2242 15.021 29.2242Z" fill="#E71F19"/>
<path d="M28.4068 15.9238C28.5242 15.9767 28.6478 16 28.7713 16C29.1358 16 29.4887 15.7827 29.6355 15.4245C29.8767 14.855 30 14.2502 30 13.6216C30 11.0731 27.9246 9 25.3724 9C24.7491 9 24.1435 9.12325 23.5731 9.36403C23.0967 9.56371 22.8734 10.1158 23.0731 10.5973C23.2731 11.0729 23.8258 11.2961 24.3079 11.0964C24.6491 10.9553 25.0077 10.8791 25.3782 10.8791C26.8953 10.8791 28.1241 12.1124 28.1241 13.6216C28.1241 13.9915 28.0538 14.3499 27.9065 14.6902C27.8574 14.8041 27.8315 14.9266 27.8301 15.0506C27.8287 15.1747 27.852 15.2978 27.8986 15.4127C27.9452 15.5276 28.0141 15.6319 28.1013 15.7196C28.1885 15.8073 28.2923 15.8766 28.4064 15.9234L28.4068 15.9238Z" fill="#F5AA15"/>
<path d="M25.29 5C24.446 5 23.6113 5.12226 22.8096 5.35732C22.2108 5.53601 21.8713 6.16137 22.0458 6.75859C22.2248 7.35586 22.852 7.69441 23.4511 7.52042C24.0485 7.34547 24.6677 7.2568 25.29 7.25708C28.8411 7.25708 31.7318 10.1396 31.7318 13.6804C31.7318 14.3151 31.6374 14.9451 31.4582 15.547C31.2791 16.1442 31.6139 16.7744 32.2126 16.9529C32.3212 16.986 32.4342 17 32.5428 17C33.0285 17 33.4765 16.6849 33.6274 16.2006C33.8728 15.3873 34 14.5408 34 13.6804C33.9954 8.8934 30.0906 5 25.29 5Z" fill="#F5AA15"/>
<path d="M14 20C11.2381 20 9 21.7888 9 24.0001C9 26.2109 11.2381 28 14 28C16.7619 28 19 26.2111 19 24.0001C19 21.789 16.7619 20 14 20ZM12.3667 26.5984C11.4 26.5984 10.6144 25.8803 10.6144 24.9967C10.6144 24.1133 11.4001 23.395 12.3667 23.395C13.3334 23.395 14.1191 24.1132 14.1191 24.9967C14.1191 25.8802 13.3334 26.5984 12.3667 26.5984ZM15.643 23.7127C15.4335 24.0478 15.0096 24.1872 14.7001 24.0216C14.3906 23.8607 14.3145 23.4559 14.5239 23.1208C14.7335 22.7856 15.1572 22.6462 15.4667 22.8117C15.7762 22.9771 15.8525 23.3819 15.6429 23.7127H15.643Z" fill="#040000"/>
</svg>
