<svg width="36" height="36" viewBox="0 0 36 36" fill="none" xmlns="http://www.w3.org/2000/svg">
<path d="M17.8572 7.35156C17.9264 7.35157 27.3136 7.35405 29.6628 7.9834C30.9635 8.33157 31.9855 9.35365 32.3337 10.6543H32.3318C32.9635 13.0095 32.9636 17.9268 32.9636 17.9268C32.9636 17.9641 32.961 22.8518 32.3318 25.1982C31.9836 26.4989 30.9615 27.5219 29.6609 27.8701C27.3143 28.4995 17.9264 28.5019 17.8572 28.502C17.8572 28.502 8.40949 28.5017 6.05347 27.8701C4.75272 27.5219 3.72978 26.499 3.38159 25.1982C2.75243 22.8518 2.74977 17.9641 2.74976 17.9268C2.74976 17.9268 2.74987 13.0095 3.38159 10.6543C3.72978 9.35356 4.75272 8.33159 6.05347 7.9834C8.40931 7.35178 17.8572 7.35156 17.8572 7.35156ZM14.8347 22.458L22.6863 17.9268L14.8347 13.3955V22.458Z" fill="#FF0000"/>
</svg>
