<svg width="48" height="49" viewBox="0 0 48 49" fill="none" xmlns="http://www.w3.org/2000/svg">
<path d="M24 4.5C35.0457 4.5 44 13.4543 44 24.5C44 34.7254 36.3257 43.1574 26.4229 44.3535V30.6113H31.833L32.9561 24.5H26.4229V22.3389C26.4229 21.3294 26.5471 20.514 26.8174 19.8701C26.8715 19.7413 26.9311 19.6192 26.9971 19.5039C27.6236 18.4093 28.7952 17.9166 30.668 17.8701C30.7665 17.8677 30.8673 17.8662 30.9697 17.8662L31.6934 17.8711C32.1486 17.8773 32.5448 17.8896 32.8633 17.9082C33.0224 17.9175 33.1623 17.929 33.2803 17.9414V12.4004C32.8331 12.2762 32.0628 12.1527 31.2461 12.0596C30.6335 11.9897 29.9947 11.9369 29.4463 11.915L28.9326 11.9043C28.7238 11.9043 28.5182 11.9069 28.3164 11.9131C25.8946 11.9872 23.977 12.5071 22.5361 13.499C22.2959 13.6644 22.0693 13.8434 21.8555 14.0352C21.214 14.6104 20.69 15.3043 20.2812 16.1211C20.077 16.5292 19.9013 16.9679 19.7539 17.4375C19.3606 18.6906 19.168 20.1643 19.168 21.8662V24.5H15.0439V30.6113H19.168V43.9102C10.457 41.7486 4 33.8793 4 24.5C4 13.4543 12.9543 4.5 24 4.5Z" fill="white"/>
</svg>
