<svg width="36" height="36" viewBox="0 0 36 36" fill="none" xmlns="http://www.w3.org/2000/svg">
<path d="M17.3587 14.4669C17.8614 14.4669 18.1815 14.1439 18.1815 13.6592C18.1815 13.1515 17.8614 12.8516 17.3587 12.8516C16.8787 12.8516 16.4215 13.1515 16.4215 13.6592C16.4215 14.1441 16.8787 14.4669 17.3587 14.4669ZM12.8328 12.8516C12.353 12.8516 11.85 13.1515 11.85 13.6592C11.85 14.1439 12.3528 14.4671 12.8328 14.4671C13.29 14.4671 13.6557 14.1439 13.6557 13.6592C13.6558 13.1515 13.2901 12.8516 12.8328 12.8516ZM19.4613 17.5825C19.1413 17.5825 18.8213 17.8823 18.8213 18.2518C18.8213 18.5516 19.1413 18.8516 19.4613 18.8516C19.9413 18.8516 20.2842 18.5516 20.2842 18.2518C20.2843 17.8825 19.9415 17.5825 19.4613 17.5825ZM23.0499 17.5825C22.7072 17.5825 22.4099 17.8823 22.4099 18.2518C22.4099 18.5516 22.707 18.8516 23.0499 18.8516C23.507 18.8516 23.85 18.5516 23.85 18.2518C23.85 17.8825 23.507 17.5825 23.0499 17.5825Z" fill="#2AAE67"/>
<path d="M28.1167 3.85156H7.58333C5.52144 3.85156 3.85 5.52301 3.85 7.5849V28.1182C3.85 30.1801 5.52144 31.8516 7.58333 31.8516H28.1167C30.1786 31.8516 31.85 30.1801 31.85 28.1182V7.5849C31.85 5.52301 30.1786 3.85156 28.1167 3.85156ZM15.1433 21.5138C14.28 21.5138 13.6498 21.3726 12.8332 21.1369L10.4765 22.3383L11.1533 20.3128C9.49682 19.1354 8.51667 17.6514 8.51667 15.8379C8.51667 12.6349 11.5033 10.1856 15.1433 10.1856C18.3633 10.1856 21.2335 12.1169 21.7933 14.849C21.56 14.8017 21.35 14.7783 21.1633 14.7783C17.9902 14.7783 15.5402 17.1805 15.5402 20.0773C15.5402 20.5718 15.6102 21.0193 15.7268 21.4905C15.5402 21.5138 15.33 21.5138 15.1433 21.5138ZM24.8732 23.8218L25.3398 25.5175L23.5665 24.5048C22.89 24.6461 22.2365 24.8581 21.56 24.8581C18.4333 24.8581 15.96 22.6914 15.96 20.0066C15.96 17.3219 18.4333 15.155 21.56 15.155C24.5233 15.155 27.1833 17.3217 27.1833 20.0066C27.1833 21.5138 26.18 22.8561 24.8732 23.8218Z" fill="#41AF37"/>
</svg>
