<svg width="36" height="36" viewBox="0 0 36 36" fill="none" xmlns="http://www.w3.org/2000/svg">
<path d="M27.7969 3.75C30.2563 3.75 32.25 5.74373 32.25 8.20312V27.7969C32.25 30.2563 30.2563 32.25 27.7969 32.25H8.20312C5.74373 32.25 3.75 30.2563 3.75 27.7969V8.20312C3.75 5.74373 5.74373 3.75 8.20312 3.75H27.7969ZM11.0527 15.5957V25.125H14.0811V15.5957H11.0527ZM21.4736 15.3281C19.9596 15.3281 18.8902 16.3082 18.623 16.9316V15.5957H15.7734V25.125H18.8018V20.0488C18.8018 18.7129 19.6924 18 20.583 18C21.4734 18.0001 22.0966 18.4454 22.0967 19.959V25.125H24.9473V19.2471C24.9473 16.3081 23.1658 15.3282 21.4736 15.3281ZM12.5674 10.875C11.6768 10.875 10.875 11.5877 10.875 12.5674C10.8751 13.547 11.5878 14.2598 12.5674 14.2598C13.5469 14.2597 14.2597 13.5469 14.2598 12.5674C14.2598 11.5878 13.547 10.8751 12.5674 10.875Z" fill="#2867B2"/>
</svg>
