<svg width="36" height="36" viewBox="0 0 36 36" fill="none" xmlns="http://www.w3.org/2000/svg">
<path d="M27.0723 3.75C29.9201 3.75006 32.2499 6.07985 32.25 8.92773V27.0732C32.25 29.8937 29.9645 32.2052 27.1553 32.25H8.84473C6.03444 32.2052 3.75003 29.8927 3.75 27.0732V8.92773C3.75006 6.07985 6.07985 3.75006 8.92773 3.75H27.0723ZM21.2666 11.0898C21.2664 9.94147 20.3968 9.33912 19.3848 10.0684L14.0332 13.2842V23.5312L19.3848 26.7471C20.3969 27.3212 21.2666 26.8904 21.2666 25.7246V11.0898ZM24.2637 23.5029C24.1536 23.5214 24.0493 23.5652 23.958 23.6299C23.8666 23.6947 23.79 23.7795 23.7354 23.8779C23.6809 23.9762 23.6496 24.0858 23.6426 24.1982C23.6355 24.3108 23.6534 24.4238 23.6953 24.5283C23.7372 24.6328 23.8022 24.7269 23.8848 24.8027C23.9673 24.8784 24.066 24.9346 24.1729 24.9668L26.6182 26.4023C26.7916 26.4943 26.9933 26.5154 27.1816 26.4609C27.3702 26.4064 27.5309 26.2804 27.6299 26.1094C27.695 25.93 27.7024 25.7344 27.6504 25.5508C27.5983 25.367 27.4892 25.2043 27.3398 25.0869V25.1445L24.8838 23.6855C24.8007 23.6102 24.701 23.555 24.5938 23.5234C24.4866 23.492 24.3737 23.4845 24.2637 23.5029ZM10.417 13.2842C9.84406 13.2989 9.29821 13.5364 8.89453 13.9473C8.49085 14.3582 8.26008 14.9114 8.25 15.4902V21.3135C8.25717 21.8942 8.48673 22.4499 8.89062 22.8633C9.29461 23.2767 9.84209 23.5164 10.417 23.5312H12.5889V13.2842H10.417ZM24.8838 17.6777C24.6924 17.6777 24.5085 17.755 24.373 17.8916C24.2377 18.0283 24.1612 18.2139 24.1611 18.4072C24.1611 18.6007 24.2376 18.787 24.373 18.9238C24.5084 19.0603 24.6925 19.1367 24.8838 19.1367H27.7773C27.9687 19.1367 28.1527 19.0604 28.2881 18.9238C28.4235 18.787 28.5 18.6007 28.5 18.4072C28.4999 18.2139 28.4234 18.0283 28.2881 17.8916C28.1527 17.755 27.9688 17.6777 27.7773 17.6777H24.8838ZM27.1074 10.3418C26.9473 10.2879 26.7736 10.2949 26.6182 10.3613L24.1729 11.8193C24.015 11.9296 23.8996 12.092 23.8467 12.2783C23.7938 12.4647 23.8067 12.6638 23.8828 12.8418C23.9674 12.9864 24.1003 13.0956 24.2578 13.1494C24.4154 13.2032 24.5871 13.198 24.7412 13.1348L27.1982 11.6758C27.3558 11.5656 27.4706 11.4038 27.5234 11.2178C27.5763 11.0314 27.5634 10.8313 27.4873 10.6533C27.4024 10.5062 27.2674 10.3957 27.1074 10.3418Z" fill="white"/>
</svg>
