<svg width="36" height="36" viewBox="0 0 36 36" fill="none" xmlns="http://www.w3.org/2000/svg">
<path d="M21.8099 15.7047V20.2278C21.8099 20.3423 21.7209 20.4314 21.6064 20.4314H20.8811C20.8112 20.4314 20.7475 20.3932 20.7157 20.3487L18.6419 17.5496V20.2341C18.6419 20.3487 18.5528 20.4377 18.4383 20.4377H17.7131C17.5986 20.4377 17.5095 20.3487 17.5095 20.2341V15.7111C17.5095 15.5965 17.5986 15.5075 17.7131 15.5075H18.4319C18.4955 15.5075 18.5655 15.5393 18.5973 15.5965L20.6712 18.3956V15.7111C20.6712 15.5965 20.7603 15.5075 20.8748 15.5075H21.6C21.7145 15.5011 21.8099 15.5965 21.8099 15.7047ZM16.5934 15.5011H15.8682C15.7537 15.5011 15.6646 15.5902 15.6646 15.7047V20.2278C15.6646 20.3423 15.7537 20.4314 15.8682 20.4314H16.5934C16.7079 20.4314 16.797 20.3423 16.797 20.2278V15.7047C16.797 15.5965 16.7079 15.5011 16.5934 15.5011ZM14.844 19.2926H12.8655V15.7047C12.8655 15.5902 12.7765 15.5011 12.6619 15.5011H11.9367C11.8222 15.5011 11.7332 15.5902 11.7332 15.7047V20.2278C11.7332 20.285 11.7522 20.3296 11.7904 20.3677C11.8286 20.3996 11.8731 20.425 11.9304 20.425H14.8376C14.9521 20.425 15.0412 20.3359 15.0412 20.2214V19.4962C15.0412 19.3881 14.9521 19.2926 14.844 19.2926ZM25.6269 15.5011H22.7196C22.6115 15.5011 22.5161 15.5902 22.5161 15.7047V20.2278C22.5161 20.3359 22.6051 20.4314 22.7196 20.4314H25.6269C25.7414 20.4314 25.8305 20.3423 25.8305 20.2278V19.5026C25.8305 19.3881 25.7414 19.299 25.6269 19.299H23.6484V18.5356H25.6269C25.7414 18.5356 25.8305 18.4465 25.8305 18.332V17.6004C25.8305 17.4859 25.7414 17.3969 25.6269 17.3969H23.6484V16.6335H25.6269C25.7414 16.6335 25.8305 16.5444 25.8305 16.4299V15.7047C25.8241 15.5965 25.735 15.5011 25.6269 15.5011ZM33 9.94744V28.0971C32.9936 30.9471 30.6589 33.2563 27.8026 33.25H9.65291C6.80291 33.2436 4.49365 30.9026 4.50001 28.0526V9.90291C4.50637 7.05291 6.84744 4.74365 9.69744 4.75001H27.8471C30.6971 4.75637 33.0063 7.09108 33 9.94744ZM29.0812 17.7468C29.0812 13.1028 24.4245 9.324 18.7055 9.324C12.9864 9.324 8.3297 13.1028 8.3297 17.7468C8.3297 21.9073 12.0194 25.3934 17.0069 26.055C18.222 26.3158 18.082 26.7612 17.8085 28.3961C17.764 28.6569 17.5986 29.4203 18.7055 28.9559C19.8124 28.4915 24.679 25.4379 26.861 22.9315C28.3624 21.2775 29.0812 19.6044 29.0812 17.7468Z" fill="#00B900"/>
</svg>
