<svg xmlns="http://www.w3.org/2000/svg" style="position:absolute;width:0;height:0;" id="svg-sprite"><symbol id="share-i-instagram" viewBox="0 0 36 36" xmlns="http://www.w3.org/2000/svg" fill="none"><g clip-path="url(#clip0_13899_76555)"><path fill="url(#paint0_linear_13899_76555)" d="M12.409 4.594c-1.437.068-2.418.297-3.275.634-.888.346-1.64.81-2.388 1.562a6.6 6.6 0 0 0-1.553 2.392c-.332.86-.557 1.841-.62 3.279-.064 1.437-.078 1.899-.071 5.565s.023 4.125.092 5.566c.069 1.436.297 2.416.634 3.274.347.888.81 1.64 1.562 2.388a6.6 6.6 0 0 0 2.394 1.553c.86.332 1.841.558 3.278.62 1.437.064 1.9.078 5.564.071s4.127-.023 5.567-.091c1.44-.069 2.415-.299 3.273-.634a6.6 6.6 0 0 0 2.388-1.562 6.6 6.6 0 0 0 1.552-2.394c.333-.859.559-1.84.621-3.276.063-1.441.078-1.901.071-5.567-.007-3.665-.023-4.125-.092-5.565-.068-1.44-.297-2.417-.633-3.275a6.6 6.6 0 0 0-1.562-2.388 6.6 6.6 0 0 0-2.394-1.552c-.859-.333-1.84-.56-3.277-.621-1.437-.063-1.9-.078-5.566-.071s-4.125.022-5.565.092M12.566 29c-1.316-.057-2.03-.276-2.507-.459a4.2 4.2 0 0 1-1.554-1.007 4.16 4.16 0 0 1-1.013-1.55c-.185-.476-.408-1.19-.47-2.506-.066-1.423-.08-1.85-.088-5.454-.008-3.605.006-4.031.068-5.454.056-1.316.277-2.031.46-2.507a4.2 4.2 0 0 1 1.006-1.554c.471-.475.92-.767 1.55-1.013.476-.186 1.19-.407 2.506-.47 1.424-.067 1.85-.08 5.454-.088s4.031.005 5.456.068c1.315.057 2.03.275 2.506.459a4.2 4.2 0 0 1 1.554 1.007c.475.472.767.92 1.014 1.551.186.474.406 1.188.469 2.505.067 1.423.083 1.85.09 5.454s-.007 4.03-.07 5.453c-.057 1.317-.275 2.032-.458 2.508a4.2 4.2 0 0 1-1.008 1.555 4.2 4.2 0 0 1-1.55 1.012c-.476.186-1.19.407-2.505.47-1.424.067-1.85.08-5.455.088s-4.03-.006-5.454-.068m11.005-18.214a1.62 1.62 0 1 0 3.239-.005 1.62 1.62 0 0 0-3.239.005m-12.504 7.228a6.933 6.933 0 1 0 13.863-.03 6.933 6.933 0 0 0-13.863.03m2.432-.004a4.5 4.5 0 1 1 9-.019 4.5 4.5 0 0 1-9 .019"/></g><defs><linearGradient id="paint0_linear_13899_76555" x1="28" x2="6" y1="4" y2="32" gradientUnits="userSpaceOnUse"><stop stop-color="#5425D5"/><stop offset=".284" stop-color="#C302A7"/><stop offset=".449" stop-color="#F01564"/><stop offset=".723" stop-color="#FF6C2C"/><stop offset="1" stop-color="#FDB251"/></linearGradient><clipPath id="clip0_13899_76555"><path fill="#fff" d="M4.5 4.5h27v27h-27z"/></clipPath></defs></symbol><symbol id="share-Instagram" viewBox="0 0 1024 1024" xmlns="http://www.w3.org/2000/svg" class="icon" version="1.1"><path fill="#fff" d="M512 306.9c-113.5 0-205.1 91.6-205.1 205.1S398.5 717.1 512 717.1 717.1 625.5 717.1 512 625.5 306.9 512 306.9m0 338.4c-73.4 0-133.3-59.9-133.3-133.3S438.6 378.7 512 378.7 645.3 438.6 645.3 512 585.4 645.3 512 645.3m213.5-394.6c-26.5 0-47.9 21.4-47.9 47.9s21.4 47.9 47.9 47.9 47.9-21.3 47.9-47.9c-.1-26.6-21.4-47.9-47.9-47.9"/><path fill="#fff" d="M911.8 512c0-55.2.5-109.9-2.6-165-3.1-64-17.7-120.8-64.5-167.6-46.9-46.9-103.6-61.4-167.6-64.5-55.2-3.1-109.9-2.6-165-2.6-55.2 0-109.9-.5-165 2.6-64 3.1-120.8 17.7-167.6 64.5C132.6 226.3 118.1 283 115 347c-3.1 55.2-2.6 109.9-2.6 165s-.5 109.9 2.6 165c3.1 64 17.7 120.8 64.5 167.6 46.9 46.9 103.6 61.4 167.6 64.5 55.2 3.1 109.9 2.6 165 2.6 55.2 0 109.9.5 165-2.6 64-3.1 120.8-17.7 167.6-64.5 46.9-46.9 61.4-103.6 64.5-167.6 3.2-55.1 2.6-109.8 2.6-165m-88 235.8c-7.3 18.2-16.1 31.8-30.2 45.8-14.1 14.1-27.6 22.9-45.8 30.2C695.2 844.7 570.3 840 512 840s-183.3 4.7-235.9-16.1c-18.2-7.3-31.8-16.1-45.8-30.2-14.1-14.1-22.9-27.6-30.2-45.8C179.3 695.2 184 570.3 184 512s-4.7-183.3 16.1-235.9c7.3-18.2 16.1-31.8 30.2-45.8s27.6-22.9 45.8-30.2C328.7 179.3 453.7 184 512 184s183.3-4.7 235.9 16.1c18.2 7.3 31.8 16.1 45.8 30.2 14.1 14.1 22.9 27.6 30.2 45.8C844.7 328.7 840 453.7 840 512s4.7 183.2-16.2 235.8"/></symbol><symbol id="share-i-facebook" viewBox="0 0 36 36" xmlns="http://www.w3.org/2000/svg" fill="none"><path fill="#3B579D" d="M18 3c8.284 0 15 6.716 15 15 0 7.669-5.756 13.993-13.183 14.89V22.585h4.058l.842-4.584V18h-4.9v-1.621q-.001-.858.167-1.477c.368-1.333 1.366-1.875 3.243-1.876.764 0 1.379.019 1.733.056V8.925c-.67-.187-2.31-.372-3.26-.372-3.943 0-6.213 1.464-7.003 4.573a9 9 0 0 0-.075.314l-.075.39q-.172.999-.171 2.194V18h-3.093v4.585h3.093v9.973C7.843 30.937 3 25.034 3 18 3 9.716 9.716 3 18 3"/></symbol><symbol id="share-facebook" viewBox="0 0 48 49" xmlns="http://www.w3.org/2000/svg" fill="none"><path fill="#fff" d="M24 4.5c11.046 0 20 8.954 20 20 0 10.225-7.674 18.657-17.577 19.853V30.611h5.41l1.123-6.111h-6.533v-2.161c0-1.01.124-1.825.394-2.469q.082-.193.18-.366c.627-1.095 1.798-1.587 3.671-1.634q.149-.004.302-.004l.723.005c.456.006.852.019 1.17.037q.24.015.417.033v-5.54c-.447-.125-1.217-.248-2.034-.341a25 25 0 0 0-1.8-.145l-.513-.01q-.315 0-.617.008c-2.421.074-4.339.594-5.78 1.586q-.36.248-.68.536a6.9 6.9 0 0 0-1.575 2.086q-.306.612-.527 1.317c-.393 1.253-.586 2.726-.586 4.428V24.5h-4.124v6.111h4.124v13.3C10.457 41.748 4 33.878 4 24.5c0-11.046 8.954-20 20-20"/></symbol><symbol id="share-i-line" viewBox="0 0 36 36" xmlns="http://www.w3.org/2000/svg" fill="none"><path fill="#00B900" d="M21.81 15.705v4.523a.2.2 0 0 1-.204.203h-.725a.21.21 0 0 1-.165-.082l-2.074-2.8v2.685c0 .115-.09.204-.204.204h-.725a.2.2 0 0 1-.204-.204v-4.523c0-.114.09-.203.204-.203h.719c.064 0 .134.031.165.089l2.074 2.799V15.71c0-.114.09-.203.204-.203h.725a.2.2 0 0 1 .21.197m-5.217-.204h-.725a.2.2 0 0 0-.203.204v4.523a.2.2 0 0 0 .203.203h.725a.2.2 0 0 0 .204-.203v-4.523a.205.205 0 0 0-.204-.204m-1.749 3.792h-1.978v-3.588a.2.2 0 0 0-.204-.204h-.725a.2.2 0 0 0-.204.204v4.523q0 .084.057.14a.2.2 0 0 0 .14.057h2.908c.114 0 .203-.09.203-.204v-.725a.204.204 0 0 0-.197-.203M25.627 15.5H22.72a.205.205 0 0 0-.204.204v4.523c0 .108.09.203.204.203h2.907a.2.2 0 0 0 .204-.203v-.725a.2.2 0 0 0-.204-.204h-1.979v-.763h1.979c.114 0 .204-.09.204-.204V17.6a.2.2 0 0 0-.204-.203h-1.979v-.763h1.979c.114 0 .204-.09.204-.204v-.725c-.007-.108-.096-.204-.204-.204M33 9.947v18.15c-.006 2.85-2.341 5.16-5.197 5.153H9.653c-2.85-.006-5.16-2.347-5.153-5.197V9.903c.006-2.85 2.347-5.16 5.197-5.153h18.15c2.85.006 5.16 2.341 5.153 5.197m-3.919 7.8c0-4.644-4.657-8.423-10.375-8.423-5.72 0-10.376 3.779-10.376 8.423 0 4.16 3.69 7.646 8.677 8.308 1.215.26 1.075.706.801 2.341-.044.26-.21 1.024.898.56 1.106-.465 5.973-3.518 8.155-6.024 1.501-1.654 2.22-3.328 2.22-5.185"/></symbol><symbol id="share-i-we chat" viewBox="0 0 36 36" xmlns="http://www.w3.org/2000/svg" fill="none"><path fill="#2AAE67" d="M17.359 14.467c.502 0 .822-.323.822-.808 0-.508-.32-.807-.822-.807-.48 0-.937.3-.937.807 0 .485.457.808.937.808m-4.526-1.615c-.48 0-.983.3-.983.807 0 .485.503.808.983.808.457 0 .823-.323.823-.808 0-.508-.366-.807-.823-.807m6.628 4.73c-.32 0-.64.3-.64.67 0 .3.32.6.64.6.48 0 .823-.3.823-.6 0-.37-.342-.67-.823-.67m3.589 0c-.343 0-.64.3-.64.67 0 .3.297.6.64.6.457 0 .8-.3.8-.6 0-.37-.343-.67-.8-.67"/><path fill="#41AF37" d="M28.117 3.852H7.583A3.733 3.733 0 0 0 3.85 7.585v20.533a3.733 3.733 0 0 0 3.733 3.734h20.534a3.733 3.733 0 0 0 3.733-3.734V7.585a3.733 3.733 0 0 0-3.733-3.733M15.143 21.514c-.863 0-1.493-.141-2.31-.377l-2.357 1.201.677-2.025c-1.656-1.178-2.636-2.662-2.636-4.475 0-3.203 2.986-5.652 6.626-5.652 3.22 0 6.09 1.93 6.65 4.663a3.2 3.2 0 0 0-.63-.07c-3.173 0-5.623 2.401-5.623 5.298 0 .495.07.942.187 1.413-.187.024-.397.024-.584.024m9.73 2.308.467 1.695-1.773-1.012c-.677.141-1.33.353-2.007.353-3.127 0-5.6-2.167-5.6-4.851s2.473-4.852 5.6-4.852c2.963 0 5.623 2.167 5.623 4.852 0 1.507-1.003 2.85-2.31 3.815"/></symbol><symbol id="share-i-linked" viewBox="0 0 36 36" xmlns="http://www.w3.org/2000/svg" fill="none"><path fill="#2867B2" d="M27.797 3.75a4.453 4.453 0 0 1 4.453 4.453v19.594a4.453 4.453 0 0 1-4.453 4.453H8.203a4.453 4.453 0 0 1-4.453-4.453V8.203A4.453 4.453 0 0 1 8.203 3.75zM11.053 15.596v9.529h3.028v-9.53zm10.42-.268c-1.513 0-2.583.98-2.85 1.604v-1.336h-2.85v9.529h3.029v-5.076c0-1.336.89-2.049 1.781-2.049s1.514.445 1.514 1.959v5.166h2.85v-5.878c0-2.939-1.781-3.919-3.473-3.919m-8.906-4.453c-.89 0-1.692.713-1.692 1.692 0 .98.713 1.693 1.692 1.693.98 0 1.693-.713 1.693-1.693s-.713-1.692-1.693-1.692"/></symbol><symbol id="share-i-redbook" viewBox="0 0 36 36" xmlns="http://www.w3.org/2000/svg" fill="none"><path fill="#FF2442" d="M27.322 4C30.17 4 32.5 6.33 32.5 9.178v18.145c0 2.82-2.285 5.132-5.095 5.177H9.095C6.285 32.455 4 30.143 4 27.323V9.178C4 6.33 6.33 4 9.178 4zM18.52 15.27a.04.04 0 0 0-.041.043v1.54c0 .04.03.074.07.074h.867q.06 0 .06.063v4.8q-.001.07-.07.07l-1.307-.003q-.03 0-.057.015a.1.1 0 0 0-.036.045l-.716 1.582h5.338v.001l.002-1.582q0-.06-.058-.059l-1.385-.003q-.067 0-.067-.069V16.99q0-.062.06-.062h.875q.065 0 .065-.067l-.002-1.523q.001-.067-.064-.067zm-8.897-.655-.027.006a.07.07 0 0 0-.036.04l-.005.026-.022 7.197q0 .038-.013.073a.2.2 0 0 1-.04.063.2.2 0 0 1-.132.06l-.807.001a.04.04 0 0 0-.02.005.04.04 0 0 0-.013.015l-.007.02q0 .01.004.02l.571 1.358h.583c1.004.032 1.446-.628 1.45-1.594q.009-3.531 0-7.186 0-.105-.098-.104zm5.118 7.125q-.068-.018-.098.05l-.68 1.523q-.025.057.033.079l.276.107h2.163v-.001l.705-1.572q.03-.065-.04-.067c-.759-.003-1.617.079-2.359-.119m9.473-7.24-.01.562q0 .063-.06.063h-.918q-.066 0-.065.067l.003 1.53q0 .074.07.074l.886-.004q.036 0 .06.027a.1.1 0 0 1 .024.062v1.316q-.001.03-.02.052l-.023.016-.026.005-1.437-.002q-.07 0-.071.077l-.002 1.522q0 .028.02.049a.07.07 0 0 0 .047.02h1.454q.012 0 .023.006a.06.06 0 0 1 .032.035l.005.024.005 3.498h1.555l.005-3.483q0-.065.06-.065 1.68-.018 2.282-.002.531.015.53.58-.001.629.007 1.258a.28.28 0 0 1-.073.193.25.25 0 0 1-.181.081l-1.243.002a.04.04 0 0 0-.02.005.044.044 0 0 0-.018.057l.585 1.374h1.146q.88-.1 1.221-.796.163-.336.159-1.055c-.006-1.376.356-3.127-1.48-3.35a9 9 0 0 0-.317-.033q-.056-.007-.055-.066c.016-.678.074-1.542-.21-2.11-.477-.958-1.407-.988-2.33-.96q-.064.001-.064-.064V14.5zm-17.51 2.428q-.053 0-.057.055-.105 1.754-.266 3.507a.7.7 0 0 1-.13.31v.068l.79 1.792q.032.073.084.013c.532-.634.786-1.68.856-2.461q.146-1.614.264-3.23a.05.05 0 0 0-.013-.038.05.05 0 0 0-.036-.016zm5.324-.01q-.06 0-.057.063.09 1.365.21 2.728c.104 1.17.284 1.939.815 2.88q.119.209.216-.012l.722-1.647a.1.1 0 0 0 .01-.052.1.1 0 0 0-.01-.052 2.3 2.3 0 0 1-.14-.675 454 454 0 0 1-.236-3.169q-.006-.061-.068-.063zm3.947-2.387q-.051 0-.072.05-.508 1.226-1.035 2.442c-.123.285-.327.692-.237.984.148.489.826.383 1.202.376q.008 0 .017.005.008.005.012.012a.04.04 0 0 1 .006.017l-.003.017-.74 1.748c-.21.493-.077.97.463.996q.489.021 1.717.005a.1.1 0 0 0 .098-.069l.522-1.24q.027-.07-.043-.07l-.806-.005q-.124-.002-.144-.132-.008-.06.046-.189.549-1.282 1.101-2.583a.05.05 0 0 0-.003-.044.05.05 0 0 0-.039-.02h-1.273a.14.14 0 0 1-.119-.07.16.16 0 0 1-.01-.143l.86-2.033a.04.04 0 0 0 .002-.019.04.04 0 0 0-.007-.017.03.03 0 0 0-.029-.018zm10.716 2.28c.084 0 .154.079.154.174l.005 1.223a.06.06 0 0 1-.018.044.06.06 0 0 1-.041.018l-.966.003a.06.06 0 0 1-.057-.06l-.005-1.223a.2.2 0 0 1 .045-.125.15.15 0 0 1 .108-.052zm2.956.069c1.195-.322.427-2.195-.664-1.46-.415.28-.326.964-.32 1.406q0 .059.057.064.635.07.927-.01"/></symbol><symbol id="share-i-weibo" viewBox="0 0 36 36" xmlns="http://www.w3.org/2000/svg" fill="none"><path fill="#E71F19" d="M29.743 20.85c-.749-2.208-3.047-3.014-3.57-3.062-.524-.048-.998-.332-.651-.917s.988-2.29-.245-3.489c-1.232-1.204-3.927-.749-5.835.029-1.902.777-1.8.235-1.74-.297.063-.562 1.09-3.7-2.05-4.08-4.113-.494-9.39 4.502-11.254 7.381-2.818 4.348-2.372 7.29-2.372 7.29h.02c.337 4.06 6.43 7.295 13.9 7.295 6.421 0 11.83-2.395 13.43-5.649q-.001-.001.02-.038a4.8 4.8 0 0 0 .371-1.075c.225-.874.396-2.14-.024-3.389M15.02 29.224c-5.317 0-9.63-2.803-9.63-6.258s4.309-6.258 9.63-6.258c5.316 0 9.63 2.803 9.63 6.258 0 3.46-4.314 6.258-9.63 6.258"/><path fill="#F5AA15" d="M28.407 15.924a.936.936 0 0 0 1.229-.5 4.63 4.63 0 0 0-6.062-6.06c-.477.2-.7.752-.5 1.233.2.476.752.7 1.234.5a2.747 2.747 0 0 1 3.816 2.525q.002.556-.217 1.068a.937.937 0 0 0 .5 1.233"/><path fill="#F5AA15" d="M25.29 5a8.8 8.8 0 0 0-2.48.357 1.13 1.13 0 0 0-.764 1.402c.179.597.806.935 1.405.761a6.5 6.5 0 0 1 1.839-.263c3.551 0 6.442 2.883 6.442 6.423a6.6 6.6 0 0 1-.274 1.867A1.126 1.126 0 0 0 32.543 17c.486 0 .934-.315 1.084-.8.246-.813.373-1.66.373-2.52C33.995 8.893 30.09 5 25.29 5"/><path fill="#040000" d="M14 20c-2.762 0-5 1.789-5 4 0 2.21 2.238 4 5 4s5-1.789 5-4-2.238-4-5-4m-1.633 6.598c-.967 0-1.753-.718-1.753-1.601 0-.884.786-1.602 1.753-1.602s1.752.718 1.752 1.602c0 .883-.786 1.601-1.752 1.601m3.276-2.885c-.21.335-.633.474-.943.309-.31-.161-.385-.566-.176-.901s.633-.475.943-.31c.31.166.385.57.176.902"/></symbol><symbol id="share-sns-logo-line" viewBox="0 0 38 38" xmlns="http://www.w3.org/2000/svg" fill="none"><path fill="#F7F7F8" d="M23.08 14.606v6.031a.27.27 0 0 1-.271.271h-.968a.28.28 0 0 1-.22-.11l-2.765-3.732v3.58a.27.27 0 0 1-.272.271h-.967a.27.27 0 0 1-.271-.272v-6.03c0-.153.119-.272.271-.272h.959c.085 0 .178.043.22.12l2.766 3.731v-3.58c0-.152.118-.27.271-.27h.967a.27.27 0 0 1 .28.262m-6.955-.271h-.967a.27.27 0 0 0-.272.271v6.031c0 .153.119.271.272.271h.967a.27.27 0 0 0 .271-.27v-6.032a.273.273 0 0 0-.271-.271m-2.333 5.055h-2.638v-4.784a.27.27 0 0 0-.271-.271h-.967a.27.27 0 0 0-.272.271v6.031a.25.25 0 0 0 .077.187c.05.042.11.076.186.076h3.877a.27.27 0 0 0 .27-.271v-.967a.27.27 0 0 0-.262-.272m14.377-5.055h-3.876a.273.273 0 0 0-.272.271v6.031c0 .144.12.271.272.271h3.876a.27.27 0 0 0 .272-.27v-.968a.27.27 0 0 0-.272-.271h-2.638V18.38h2.638a.27.27 0 0 0 .272-.272v-.975a.27.27 0 0 0-.272-.271h-2.638v-1.018h2.638a.27.27 0 0 0 .272-.272v-.967c-.009-.144-.128-.271-.272-.271M38 6.93v24.2c-.008 3.8-3.121 6.878-6.93 6.87H6.87c-3.8-.008-6.878-3.13-6.87-6.93V6.87C.008 3.07 3.13-.007 6.93 0h24.2c3.8.008 6.878 3.121 6.87 6.93m-5.225 10.399c0-6.192-6.209-11.23-13.834-11.23-7.626 0-13.835 5.038-13.835 11.23 0 5.547 4.92 10.196 11.57 11.078 1.62.348 1.433.941 1.069 3.121-.06.348-.28 1.366 1.196.747s7.964-4.691 10.874-8.033c2.002-2.205 2.96-4.436 2.96-6.913"/></symbol><symbol id="share-sns-logo-mini-program" viewBox="0 0 36 36" xmlns="http://www.w3.org/2000/svg" fill="none"><path fill="#fff" d="M18 3.75a14.25 14.25 0 1 0 0 28.5 14.25 14.25 0 0 0 0-28.5m7.145 12.808a4.23 4.23 0 0 1-2.431 1.83c-.22.071-.45.11-.681.114a.81.81 0 0 1 0-1.62.4.4 0 0 0 .18-.033 2.55 2.55 0 0 0 1.555-1.14c.203-.332.31-.714.308-1.103 0-1.28-1.183-2.335-2.625-2.335-.499.002-.99.13-1.425.374a2.28 2.28 0 0 0-1.217 1.96v6.798a3.85 3.85 0 0 1-2.023 3.352 4.44 4.44 0 0 1-2.22.57c-2.349 0-4.275-1.767-4.275-3.953a3.8 3.8 0 0 1 .55-1.944 4.23 4.23 0 0 1 2.43-1.83q.333-.106.682-.114a.808.808 0 0 1 .752 1.12.81.81 0 0 1-.752.499.4.4 0 0 0-.18.034 2.67 2.67 0 0 0-1.556 1.14c-.203.332-.31.714-.308 1.103 0 1.28 1.183 2.334 2.643 2.334.498 0 .99-.13 1.425-.373a2.28 2.28 0 0 0 1.214-1.96v-6.767a3.86 3.86 0 0 1 2.026-3.354 4.2 4.2 0 0 1 2.203-.599c2.348 0 4.275 1.767 4.275 3.953a3.8 3.8 0 0 1-.55 1.944"/></symbol><symbol id="share-linkedin" viewBox="0 0 32 33" xmlns="http://www.w3.org/2000/svg" fill="none"><path fill="#fff" d="M27 .5H5a5 5 0 0 0-5 5v22a5 5 0 0 0 5 5h22a5 5 0 0 0 5-5v-22a5 5 0 0 0-5-5"/><path fill="#07185C" d="M11.6 24.5H8.2V13.8h3.4zM9.9 12.3c-1.1 0-1.9-.8-1.9-1.9s.9-1.9 1.9-1.9c1.1 0 1.9.8 1.9 1.9s-.8 1.9-1.9 1.9M24 24.5h-3.4v-5.8c0-1.7-.7-2.2-1.7-2.2s-2 .8-2 2.3v5.7h-3.4V13.8h3.2v1.5c.3-.7 1.5-1.8 3.2-1.8 1.9 0 3.9 1.1 3.9 4.4v6.6z"/></symbol><symbol id="share-i-x" viewBox="0 0 36 36" xmlns="http://www.w3.org/2000/svg" fill="none"><path fill="#000" d="M4 4h28v28H4z"/><path fill="#fff" d="M20.31 16.47 27.383 8h-1.676l-6.145 7.352L14.658 8H9l7.418 11.12L9 28h1.676l6.485-7.766L22.341 28H28M11.28 9.302h2.575l11.852 17.46h-2.575"/></symbol><symbol id="share-sns-logo-red-book" viewBox="0 0 36 36" xmlns="http://www.w3.org/2000/svg" fill="none"><path fill="#fff" d="M27.072 3.75c2.848 0 5.178 2.33 5.178 5.178v18.145c0 2.82-2.285 5.132-5.095 5.177H8.845c-2.81-.045-5.095-2.357-5.095-5.177V8.928c0-2.848 2.33-5.178 5.178-5.178zM18.27 15.02a.04.04 0 0 0-.041.043v1.54c0 .04.03.074.07.074h.867q.06 0 .06.063v4.8q-.001.07-.07.07l-1.307-.003q-.03 0-.057.015a.1.1 0 0 0-.036.045l-.716 1.582h5.338v.001l.002-1.582q0-.06-.058-.059l-1.385-.003q-.067 0-.067-.069V16.74q0-.062.06-.062h.875q.065 0 .065-.067l-.002-1.523q.001-.067-.064-.067zm-8.897-.655-.027.006a.07.07 0 0 0-.036.04l-.005.026-.022 7.197q0 .038-.013.073a.2.2 0 0 1-.04.063.2.2 0 0 1-.132.06l-.807.001a.04.04 0 0 0-.02.005.04.04 0 0 0-.013.015l-.007.02q0 .01.004.02l.571 1.358h.583c1.004.032 1.446-.628 1.45-1.594q.009-3.531 0-7.186 0-.105-.098-.104zm5.118 7.125q-.068-.018-.098.05l-.68 1.523q-.025.057.033.079l.276.107h2.163v-.001l.705-1.572q.03-.065-.04-.067c-.759-.003-1.617.079-2.359-.119m9.473-7.24-.01.562q0 .063-.06.063h-.918q-.066 0-.065.067l.003 1.53q0 .074.07.074l.886-.004q.036 0 .06.027a.1.1 0 0 1 .024.062v1.316q-.001.03-.02.052l-.023.016-.026.005-1.437-.002q-.07 0-.071.077l-.002 1.522q0 .028.02.049a.07.07 0 0 0 .047.02h1.454q.012 0 .023.006a.06.06 0 0 1 .032.035l.005.024.005 3.498h1.555l.005-3.483q0-.065.06-.065 1.68-.018 2.282-.002.531.015.53.58-.001.629.007 1.258a.28.28 0 0 1-.073.193.25.25 0 0 1-.181.081l-1.243.002a.04.04 0 0 0-.02.005.044.044 0 0 0-.018.057l.585 1.374h1.146q.88-.1 1.221-.796.163-.336.159-1.055c-.006-1.376.356-3.127-1.48-3.35a9 9 0 0 0-.317-.033q-.056-.007-.055-.066c.016-.678.074-1.542-.21-2.11-.477-.958-1.407-.988-2.33-.96q-.064.001-.064-.064v-.565zm-17.51 2.428q-.053 0-.057.055-.105 1.754-.266 3.507a.7.7 0 0 1-.13.31v.068l.79 1.792q.032.073.084.013c.532-.634.786-1.68.856-2.461q.146-1.614.264-3.23a.05.05 0 0 0-.013-.038.05.05 0 0 0-.036-.016zm5.324-.01q-.06 0-.057.063.09 1.365.21 2.728c.104 1.17.284 1.939.815 2.88q.119.209.216-.012l.722-1.647a.1.1 0 0 0 .01-.052.1.1 0 0 0-.01-.052 2.3 2.3 0 0 1-.14-.675 454 454 0 0 1-.236-3.169q-.006-.061-.068-.063zm3.947-2.387q-.051 0-.072.05-.508 1.226-1.035 2.442c-.123.285-.327.692-.237.984.148.489.826.383 1.202.376q.008 0 .017.005.008.005.012.012a.04.04 0 0 1 .006.017l-.003.017-.74 1.748c-.21.493-.077.97.463.996q.489.021 1.717.005a.1.1 0 0 0 .098-.069l.522-1.24q.027-.07-.043-.07l-.806-.005q-.124-.002-.144-.132-.008-.06.046-.189.549-1.282 1.101-2.583a.05.05 0 0 0-.003-.044.05.05 0 0 0-.039-.02h-1.273a.14.14 0 0 1-.119-.07.16.16 0 0 1-.01-.143l.86-2.033a.04.04 0 0 0 .002-.019.04.04 0 0 0-.007-.017.03.03 0 0 0-.029-.018zm10.716 2.28c.084 0 .154.079.154.174l.005 1.223a.06.06 0 0 1-.018.044.06.06 0 0 1-.041.018l-.966.003a.06.06 0 0 1-.057-.06l-.005-1.223a.2.2 0 0 1 .045-.125.15.15 0 0 1 .108-.052zm2.956.069c1.195-.322.427-2.195-.664-1.46-.415.28-.326.964-.32 1.406q0 .059.057.064.635.07.927-.01"/></symbol><symbol id="share-i-youtube" viewBox="0 0 36 36" xmlns="http://www.w3.org/2000/svg" fill="none"><path fill="red" d="M17.857 7.352c.07 0 9.457.002 11.806.631a3.78 3.78 0 0 1 2.67 2.671h-.001c.632 2.355.632 7.273.632 7.273 0 .037-.003 4.925-.632 7.271a3.79 3.79 0 0 1-2.671 2.672c-2.347.63-11.735.632-11.804.632 0 0-9.448 0-11.804-.632a3.79 3.79 0 0 1-2.671-2.672c-.63-2.346-.632-7.234-.632-7.271 0 0 0-4.917.632-7.273a3.78 3.78 0 0 1 2.671-2.67c2.356-.632 11.804-.632 11.804-.632m-3.022 15.106 7.851-4.531-7.851-4.531z"/></symbol><symbol id="share-sns-logo-wechat" viewBox="0 0 36 36" xmlns="http://www.w3.org/2000/svg" fill="none"><path fill="#fff" d="M10.5 12.75c0 .83.502 1.5 1.125 1.5s1.125-.67 1.125-1.5-.502-1.5-1.125-1.5-1.125.67-1.125 1.5"/><path fill="#fff" d="M19.5 19.125c0 .62.337 1.125.75 1.125s.75-.505.75-1.125S20.663 18 20.25 18c-.418.006-.75.505-.75 1.125"/><path fill="#fff" d="M16.5 12.75c0 .83.502 1.5 1.125 1.5s1.125-.67 1.125-1.5-.502-1.5-1.125-1.5-1.125.67-1.125 1.5"/><path fill="#fff" d="M32.164 7.917c0-2.33-1.917-4.167-4.167-4.167H7.917c-2.335 0-4.167 1.918-4.167 4.167v20.166c0 2.33 1.918 4.167 4.167 4.167h20.166c2.33 0 4.167-1.918 4.167-4.167zM14.43 22.754c-1.076 0-1.944-.22-3.026-.434l-3.016 1.515.863-2.597c-2.164-1.51-3.455-3.46-3.455-5.833 0-4.108 3.889-7.349 8.64-7.349 4.247 0 7.97 2.587 8.72 6.069a9 9 0 0 0-.83-.048c-4.104 0-7.344 3.058-7.344 6.834 0 .627.096 1.232.268 1.81a10 10 0 0 1-.82.033m12.742 3.026.648 2.158-2.367-1.296c-.862.214-1.73.434-2.592.434-4.108 0-7.349-2.807-7.349-6.267 0-3.454 3.235-6.266 7.349-6.266 3.883 0 7.338 2.817 7.338 6.266 0 1.945-1.291 3.67-3.027 4.97"/><path fill="#fff" d="M24.75 19.125c0 .62.337 1.125.75 1.125s.75-.505.75-1.125S25.913 18 25.5 18c-.413.006-.75.505-.75 1.125"/></symbol><symbol id="share-subtract" viewBox="0 0 32 23" xmlns="http://www.w3.org/2000/svg" fill="none"><path fill="#fff" d="M16 .3s10.008 0 12.505.669a4.01 4.01 0 0 1 2.829 2.829h-.003C32.001 6.292 32 11.5 32 11.5c0 .037-.002 5.217-.669 7.702a4.01 4.01 0 0 1-2.829 2.828C26.007 22.7 16 22.7 16 22.7s-10.007 0-12.502-.67a4.01 4.01 0 0 1-2.83-2.828C.003 16.716 0 11.537 0 11.5c0 0 0-5.208.669-7.702A4.01 4.01 0 0 1 3.498.968C5.993.3 16 .3 16 .3m-3.2 15.999 8.315-4.799L12.8 6.7z"/></symbol><symbol id="share-sns-logo-x-announcement" viewBox="0 0 36 36" xmlns="http://www.w3.org/2000/svg" fill="none"><path fill="#fff" d="M27.072 3.75c2.848 0 5.178 2.33 5.178 5.178v18.145c0 2.82-2.285 5.132-5.095 5.177H8.845c-2.81-.045-5.095-2.357-5.095-5.177V8.928c0-2.848 2.33-5.178 5.178-5.178zm-5.805 7.34c0-1.149-.87-1.75-1.882-1.022l-5.352 3.216v10.247l5.352 3.216c1.012.574 1.882.143 1.882-1.022zm2.997 12.413a.74.74 0 0 0-.529.375.757.757 0 0 0 .438 1.089l2.445 1.435a.754.754 0 0 0 1.012-.293.91.91 0 0 0-.29-1.022v.058l-2.456-1.46a.75.75 0 0 0-.62-.182M10.417 13.284a2.2 2.2 0 0 0-1.522.663 2.26 2.26 0 0 0-.645 1.543v5.824c.007.58.237 1.136.64 1.55a2.22 2.22 0 0 0 1.527.667h2.172V13.284zm14.467 4.394a.72.72 0 0 0-.511.214.734.734 0 0 0 0 1.032.72.72 0 0 0 .51.213h2.894a.72.72 0 0 0 .511-.213.736.736 0 0 0 0-1.032.72.72 0 0 0-.51-.214zm2.223-7.336a.7.7 0 0 0-.489.02l-2.445 1.457a.84.84 0 0 0-.29 1.023.69.69 0 0 0 .858.293l2.457-1.46a.84.84 0 0 0 .325-.457.85.85 0 0 0-.036-.565.7.7 0 0 0-.38-.311"/></symbol><symbol id="share-sns-logo-weibo" viewBox="0 0 36 36" xmlns="http://www.w3.org/2000/svg" fill="none"><path fill="#fff" d="M15.729 16.778c-3.912.183-7.08 2.281-7.08 4.889s3.168 4.573 7.08 4.39c3.91-.183 7.089-2.628 7.089-5.246 0-2.597-3.168-4.217-7.09-4.033m2.668 6.58c-1.202 1.548-3.565 2.302-5.877 1.06-1.09-.602-1.05-1.773-1.05-1.773s-.458-3.687 3.484-4.146c3.942-.458 4.645 3.31 3.443 4.859m-2.638-2.475a.573.573 0 0 0-.163.753c.133.224.438.245.683.062.244-.194.336-.53.203-.754-.132-.214-.427-.275-.723-.061m-1.864.509c-.733.071-1.263.713-1.263 1.334 0 .611.59 1.04 1.324.948.734-.082 1.324-.652 1.324-1.264.01-.61-.54-1.1-1.385-1.018M27.921 3.75H8.089A4.343 4.343 0 0 0 3.75 8.09v19.82a4.343 4.343 0 0 0 4.34 4.34h19.82a4.343 4.343 0 0 0 4.34-4.34V8.09a4.33 4.33 0 0 0-4.329-4.34m-1.61 18.803c-1.609 3.422-6.936 5.093-10.878 4.787-3.748-.295-8.566-1.538-9.065-6.07 0 0-.265-2.058 1.731-4.706 0 0 2.863-4.003 6.193-5.144 3.341-1.13 3.728.784 3.728 1.925-.173.968-.509 1.528.744 1.14 0 0 3.28-1.517 4.634-.172 1.09 1.09.184 2.587.184 2.587s-.448.499.479.682c.937.184 3.87 1.538 2.25 4.971m-3.228-9.473a.648.648 0 0 1 0-1.294s4.023-.743 3.544 3.576c0 .02 0 .04-.01.071a.64.64 0 0 1-.631.54.65.65 0 0 1-.652-.642s.631-2.882-2.251-2.25m6.794 3.463c-.112.734-.48.795-.907.795-.52 0-.937-.326-.937-.846 0-.448.183-.906.183-.906.051-.194.49-1.365-.285-3.117-1.426-2.404-4.308-2.434-4.655-2.302a4.7 4.7 0 0 1-.845.204.941.941 0 0 1-.255-1.844l.02-.02c.031-.01.062-.03.092-.041.398-.081 1.834-.356 3.219-.03 2.496.58 5.908 2.984 4.37 8.107"/></symbol><symbol id="share-x" viewBox="0 0 32 33" xmlns="http://www.w3.org/2000/svg" fill="none"><path fill="#fff" d="M18.667 14.356 28.78 2.5h-2.396l-8.781 10.295L10.589 2.5H2.5l10.606 15.567L2.5 30.5h2.397l9.273-10.871L21.576 30.5h8.09zm-3.282 3.848-1.075-1.55L5.76 4.32h3.681l6.9 9.954 1.075 1.55 8.969 12.94h-3.681z"/></symbol></svg>
